<?xml version="1.0" encoding="utf-8" standalone="no"?>
<!DOCTYPE svg PUBLIC "-//W3C//DTD SVG 1.1//EN"
  "http://www.w3.org/Graphics/SVG/1.1/DTD/svg11.dtd">
<!-- Created with matplotlib (http://matplotlib.org/) -->
<svg height="432pt" version="1.1" viewBox="0 0 576 432" width="576pt" xmlns="http://www.w3.org/2000/svg" xmlns:xlink="http://www.w3.org/1999/xlink">
 <defs>
  <style type="text/css">
*{stroke-linecap:butt;stroke-linejoin:round;stroke-miterlimit:100000;}
  </style>
 </defs>
 <g id="figure_1">
  <g id="patch_1">
   <path d="M 0 432 
L 576 432 
L 576 0 
L 0 0 
z
" style="fill:#ffffff;"/>
  </g>
  <g id="axes_1">
   <g id="patch_2">
    <path d="M 72 388.8 
L 518.4 388.8 
L 518.4 43.2 
L 72 43.2 
z
" style="fill:#ffffff;"/>
   </g>
   <g id="line2d_1">
    <path clip-path="url(#pa149647ef1)" d="M 72 345.6 
L 72.8928 347.431555 
L 73.7856 351.359231 
L 74.6784 345.664661 
L 75.5712 341.464012 
L 76.464 344.808027 
L 77.3568 327.716809 
L 78.2496 326.163862 
L 79.1424 324.192672 
L 80.928 321.087691 
L 81.8208 327.680503 
L 82.7136 327.87933 
L 83.6064 342.884897 
L 84.4992 339.545598 
L 85.392 358.262305 
L 86.2848 367.950025 
L 88.0704 339.387105 
L 88.9632 339.976282 
L 89.856 323.941732 
L 90.7488 338.119607 
L 91.6416 337.00679 
L 92.5344 343.807807 
L 93.4272 346.576027 
L 94.32 338.560235 
L 95.2128 317.025262 
L 96.1056 354.168792 
L 96.9984 331.308639 
L 97.8912 330.288719 
L 98.784 355.860735 
L 99.6768 340.381895 
L 100.5696 337.778467 
L 101.4624 326.752503 
L 102.3552 322.680103 
L 103.248 322.825538 
L 104.1408 304.411285 
L 105.0336 328.782763 
L 105.9264 317.92759 
L 106.8192 304.125215 
L 107.712 312.70579 
L 108.6048 286.747156 
L 109.4976 295.592993 
L 110.3904 297.662839 
L 111.2832 292.254606 
L 112.176 302.183634 
L 113.0688 304.362375 
L 113.9616 302.86218 
L 115.7472 326.678281 
L 116.64 317.159073 
L 117.5328 296.552422 
L 118.4256 326.711944 
L 119.3184 307.70928 
L 120.2112 317.444508 
L 121.104 311.150361 
L 121.9968 331.309987 
L 122.8896 321.063489 
L 123.7824 297.139943 
L 124.6752 299.976847 
L 125.568 300.518956 
L 126.4608 314.793655 
L 127.3536 298.326541 
L 128.2464 286.556584 
L 129.1392 291.145265 
L 130.032 275.122826 
L 130.9248 312.906279 
L 131.8176 292.538782 
L 132.7104 292.237094 
L 133.6032 306.04878 
L 134.496 292.028673 
L 135.3888 287.268569 
L 136.2816 297.193901 
L 137.1744 284.768123 
L 138.0672 295.122145 
L 138.96 290.419171 
L 139.8528 318.826936 
L 140.7456 309.836554 
L 141.6384 296.899381 
L 142.5312 318.159495 
L 143.424 327.250142 
L 144.3168 304.616659 
L 145.2096 320.816263 
L 146.1024 276.484466 
L 146.9952 287.338927 
L 147.888 277.256768 
L 148.7808 255.921403 
L 149.6736 272.599097 
L 150.5664 264.442756 
L 151.4592 217.486577 
L 152.352 220.258982 
L 153.2448 207.258421 
L 154.1376 223.771451 
L 155.0304 223.075812 
L 155.9232 217.108821 
L 156.816 213.730441 
L 157.7088 209.865744 
L 158.6016 211.787312 
L 159.4944 208.832667 
L 160.3872 215.926251 
L 161.28 235.005076 
L 162.1728 209.585845 
L 163.0656 203.599062 
L 163.9584 228.68821 
L 164.8512 211.414681 
L 165.744 232.310212 
L 166.6368 219.021868 
L 167.5296 239.454635 
L 168.4224 241.827061 
L 169.3152 230.812928 
L 170.208 218.265375 
L 171.1008 212.240738 
L 171.9936 223.502489 
L 172.8864 219.313256 
L 173.7792 216.056612 
L 174.672 219.512368 
L 175.5648 221.17657 
L 176.4576 217.37706 
L 177.3504 212.791546 
L 178.2432 223.395563 
L 179.136 201.662076 
L 180.0288 228.163415 
L 180.9216 226.844821 
L 181.8144 216.617794 
L 182.7072 223.181 
L 183.6 217.578163 
L 184.4928 191.803781 
L 185.3856 222.311381 
L 186.2784 225.870262 
L 187.1712 231.848044 
L 188.064 226.370963 
L 188.9568 233.29679 
L 189.8496 217.131865 
L 190.7424 213.548767 
L 191.6352 246.166096 
L 192.528 218.752748 
L 193.4208 219.940348 
L 194.3136 215.86355 
L 195.2064 202.225198 
L 196.0992 217.414547 
L 196.992 216.207635 
L 197.8848 212.814355 
L 198.7776 217.973682 
L 199.6704 231.182746 
L 200.5632 206.122936 
L 201.456 228.263562 
L 202.3488 209.953084 
L 203.2416 218.449673 
L 204.1344 214.264671 
L 205.0272 194.286923 
L 205.92 213.570751 
L 206.8128 200.239032 
L 207.7056 201.308424 
L 208.5984 204.599869 
L 209.4912 207.06603 
L 210.384 192.985575 
L 211.2768 198.727588 
L 212.1696 186.994942 
L 213.0624 188.70744 
L 213.9552 188.78774 
L 214.848 188.602303 
L 215.7408 175.877651 
L 216.6336 174.13271 
L 217.5264 173.96334 
L 218.4192 192.530129 
L 219.312 168.690113 
L 220.2048 172.284659 
L 221.0976 166.254202 
L 221.9904 170.018089 
L 222.8832 170.106162 
L 223.776 153.047455 
L 224.6688 161.929231 
L 225.5616 161.445746 
L 226.4544 165.71547 
L 227.3472 164.514417 
L 228.24 156.830996 
L 229.1328 161.414617 
L 230.0256 152.825374 
L 230.9184 149.762968 
L 231.8112 158.865382 
L 232.704 160.144233 
L 233.5968 158.438202 
L 234.4896 147.495145 
L 235.3824 149.827979 
L 236.2752 150.620155 
L 237.168 161.421755 
L 238.0608 145.924812 
L 238.9536 170.052442 
L 239.8464 169.779603 
L 240.7392 161.367937 
L 241.632 159.85478 
L 242.5248 154.152341 
L 243.4176 165.919836 
L 244.3104 166.396035 
L 245.2032 158.053915 
L 246.096 172.89266 
L 246.9888 159.379445 
L 247.8816 165.479113 
L 248.7744 154.193269 
L 249.6672 154.355236 
L 250.56 167.632718 
L 251.4528 149.891129 
L 252.3456 149.179009 
L 253.2384 168.768578 
L 254.1312 162.231696 
L 255.024 159.798633 
L 255.9168 168.413473 
L 256.8096 150.574726 
L 257.7024 151.18044 
L 258.5952 157.708134 
L 259.488 138.591666 
L 260.3808 160.481234 
L 261.2736 159.414416 
L 263.0592 151.587852 
L 263.952 148.908629 
L 264.8448 161.991994 
L 265.7376 160.518328 
L 266.6304 156.636137 
L 267.5232 163.656212 
L 268.416 151.354229 
L 269.3088 146.12267 
L 270.2016 159.961855 
L 271.0944 159.54745 
L 271.9872 166.181714 
L 272.88 154.317348 
L 273.7728 178.587115 
L 274.6656 161.190282 
L 275.5584 172.153664 
L 276.4512 159.047804 
L 277.344 150.121146 
L 278.2368 165.089098 
L 279.1296 159.950984 
L 280.0224 185.83194 
L 280.9152 175.330594 
L 281.808 158.683891 
L 282.7008 166.050746 
L 283.5936 170.429439 
L 284.4864 163.757501 
L 285.3792 164.466179 
L 286.272 172.587572 
L 287.1648 171.373311 
L 288.0576 184.265069 
L 288.9504 173.913065 
L 289.8432 176.450853 
L 290.736 167.63741 
L 291.6288 167.11226 
L 292.5216 163.568814 
L 293.4144 177.74599 
L 294.3072 159.713891 
L 295.2 168.333363 
L 296.0928 159.243793 
L 296.9856 160.810099 
L 297.8784 158.501509 
L 298.7712 162.197468 
L 299.664 183.481155 
L 301.4496 154.96788 
L 302.3424 157.290384 
L 303.2352 170.538317 
L 304.128 150.852861 
L 305.0208 154.668956 
L 305.9136 145.268331 
L 306.8064 162.512681 
L 307.6992 155.183693 
L 308.592 161.619951 
L 309.4848 162.279607 
L 311.2704 147.148272 
L 312.1632 152.224228 
L 313.056 150.01047 
L 313.9488 157.42287 
L 314.8416 142.604202 
L 315.7344 149.537947 
L 316.6272 140.821904 
L 317.52 159.226187 
L 318.4128 142.820148 
L 319.3056 147.833065 
L 320.1984 142.43385 
L 321.0912 142.580437 
L 321.984 136.816772 
L 322.8768 150.285324 
L 323.7696 138.608865 
L 324.6624 154.193267 
L 325.5552 154.303139 
L 326.448 169.378162 
L 327.3408 140.492927 
L 328.2336 153.164074 
L 329.1264 146.214397 
L 330.0192 147.016059 
L 330.912 155.176863 
L 331.8048 158.959587 
L 332.6976 138.340031 
L 333.5904 158.506542 
L 334.4832 161.955836 
L 335.376 150.736758 
L 336.2688 159.461747 
L 337.1616 140.290383 
L 338.0544 151.665254 
L 338.9472 153.592306 
L 339.84 149.501915 
L 340.7328 146.776961 
L 341.6256 141.940611 
L 342.5184 135.00985 
L 343.4112 131.081742 
L 344.304 136.110143 
L 345.1968 143.738532 
L 346.0896 153.204717 
L 346.9824 151.627972 
L 347.8752 144.860772 
L 348.768 154.607638 
L 349.6608 142.179397 
L 350.5536 163.355381 
L 351.4464 145.322317 
L 352.3392 147.268785 
L 353.232 151.995249 
L 354.1248 140.005351 
L 355.0176 150.246667 
L 355.9104 147.949321 
L 357.696 137.00483 
L 358.5888 138.367437 
L 359.4816 145.112296 
L 360.3744 139.097573 
L 361.2672 146.784829 
L 362.16 149.562763 
L 363.0528 148.446028 
L 363.9456 139.368089 
L 364.8384 147.385074 
L 365.7312 150.907811 
L 366.624 140.363339 
L 367.5168 166.084002 
L 368.4096 144.097964 
L 369.3024 146.265286 
L 370.1952 152.332516 
L 371.088 155.284781 
L 371.9808 146.419794 
L 372.8736 145.464192 
L 373.7664 139.403256 
L 374.6592 131.777484 
L 375.552 156.18729 
L 376.4448 146.132728 
L 377.3376 165.668687 
L 378.2304 150.903278 
L 379.1232 155.222834 
L 380.016 143.047002 
L 380.9088 148.349523 
L 381.8016 141.114952 
L 382.6944 130.023244 
L 383.5872 153.729157 
L 384.48 140.908839 
L 385.3728 159.825457 
L 386.2656 143.947871 
L 387.1584 144.521624 
L 388.0512 155.49372 
L 388.944 148.01772 
L 389.8368 152.307167 
L 390.7296 150.522076 
L 391.6224 150.589426 
L 392.5152 157.454271 
L 393.408 148.26629 
L 394.3008 137.665234 
L 395.1936 136.042763 
L 396.0864 146.680113 
L 396.9792 149.121206 
L 397.872 148.334156 
L 398.7648 148.657517 
L 399.6576 138.647152 
L 400.5504 146.128526 
L 401.4432 147.897673 
L 402.336 145.632548 
L 403.2288 145.05649 
L 404.1216 137.230922 
L 405.0144 143.639387 
L 405.9072 151.433971 
L 406.8 135.620932 
L 407.6928 137.194126 
L 408.5856 146.426186 
L 409.4784 138.60195 
L 410.3712 144.889599 
L 411.264 143.677467 
L 412.1568 141.374288 
L 413.0496 140.055215 
L 413.9424 164.960427 
L 414.8352 142.640087 
L 415.728 136.256935 
L 416.6208 148.263243 
L 417.5136 142.628536 
L 418.4064 142.952346 
L 419.2992 129.64737 
L 420.192 129.141985 
L 421.0848 138.148888 
L 421.9776 126.725311 
L 422.8704 140.410682 
L 423.7632 137.285307 
L 424.656 152.295256 
L 425.5488 143.552274 
L 426.4416 139.251549 
L 427.3344 130.166825 
L 428.2272 139.488879 
L 429.12 137.268425 
L 430.0128 147.810482 
L 430.9056 139.764971 
L 431.7984 141.638298 
L 432.6912 138.91356 
L 433.584 151.177409 
L 434.4768 140.820194 
L 435.3696 143.137999 
L 436.2624 129.681312 
L 437.1552 134.632603 
L 438.048 149.16187 
L 438.9408 132.234447 
L 439.8336 136.053079 
L 440.7264 152.079137 
L 441.6192 129.325074 
L 442.512 131.805283 
L 443.4048 137.929385 
L 444.2976 131.261091 
L 445.1904 137.206538 
L 446.0832 148.805377 
L 446.976 131.973698 
L 447.8688 133.642224 
L 448.7616 138.61591 
L 449.6544 123.18783 
L 450.5472 149.74191 
L 451.44 148.304655 
L 452.3328 123.368672 
L 453.2256 133.221283 
L 454.1184 130.650383 
L 455.0112 143.65651 
L 455.904 146.060132 
L 456.7968 148.933161 
L 457.6896 141.337514 
L 458.5824 151.841059 
L 459.4752 140.154933 
L 460.368 146.582856 
L 461.2608 155.392621 
L 462.1536 128.514708 
L 463.0464 146.890223 
L 463.9392 153.587551 
L 464.832 142.745154 
L 465.7248 158.089015 
L 466.6176 141.076049 
L 467.5104 136.420144 
L 468.4032 124.328964 
L 469.296 137.924149 
L 470.1888 142.754313 
L 471.0816 142.074268 
L 471.9744 157.476755 
L 472.8672 149.54421 
L 473.76 160.656358 
L 474.6528 146.026571 
L 475.5456 149.522696 
L 476.4384 154.578913 
L 477.3312 151.434252 
L 478.224 126.92916 
L 479.1168 134.236788 
L 480.0096 146.032875 
L 480.9024 119.707858 
L 481.7952 138.975215 
L 482.688 147.21662 
L 483.5808 122.963849 
L 484.4736 137.232652 
L 485.3664 146.75085 
L 486.2592 130.790762 
L 487.152 154.67126 
L 488.0448 139.991259 
L 488.9376 143.24134 
L 490.7232 129.246755 
L 491.616 135.140617 
L 492.5088 135.906382 
L 493.4016 152.382012 
L 494.2944 132.671423 
L 495.1872 151.136684 
L 496.08 135.201239 
L 496.9728 136.416038 
L 497.8656 140.018261 
L 498.7584 155.137009 
L 499.6512 137.314945 
L 500.544 148.485489 
L 502.3296 123.491165 
L 503.2224 152.186674 
L 504.1152 135.592907 
L 505.008 147.849539 
L 505.9008 151.789495 
L 506.7936 147.832249 
L 507.6864 155.735231 
L 508.5792 146.57224 
L 509.472 135.841098 
L 510.3648 145.867271 
L 511.2576 138.645009 
L 512.1504 127.027636 
L 513.0432 136.315508 
L 513.936 134.173247 
L 514.8288 145.619442 
L 516.6144 144.2965 
L 517.5072 140.262332 
L 517.5072 140.262332 
" style="fill:none;stroke:#0000ff;stroke-linecap:square;"/>
   </g>
   <g id="line2d_2">
    <path clip-path="url(#pa149647ef1)" d="M 72 345.6 
L 72.8928 345.6 
L 73.7856 330.916107 
L 74.6784 328.885856 
L 75.5712 307.95525 
L 76.464 300.342123 
L 77.3568 300.342123 
L 78.2496 300.087282 
L 80.0352 300.03508 
L 80.928 266.290719 
L 81.8208 264.169544 
L 82.7136 264.169544 
L 83.6064 253.849597 
L 84.4992 253.617717 
L 85.392 248.227312 
L 86.2848 244.593868 
L 87.1776 244.593868 
L 88.0704 241.130005 
L 88.9632 241.130005 
L 89.856 231.923213 
L 90.7488 231.923213 
L 91.6416 227.357723 
L 93.4272 227.357723 
L 94.32 226.545968 
L 96.1056 226.545968 
L 96.9984 224.860993 
L 101.4624 224.860993 
L 103.248 224.501806 
L 104.1408 223.195339 
L 105.9264 223.127033 
L 108.6048 223.123442 
L 109.4976 222.72431 
L 110.3904 219.112454 
L 112.176 219.112454 
L 113.0688 209.84557 
L 113.9616 206.359188 
L 114.8544 180.69651 
L 127.3536 180.69651 
L 128.2464 157.370173 
L 136.2816 157.370173 
L 137.1744 136.695645 
L 138.0672 136.695645 
L 138.96 117.882596 
L 141.6384 117.882596 
L 142.5312 113.478619 
L 144.3168 113.478619 
L 145.2096 113.047802 
L 146.1024 113.047802 
L 146.9952 112.526516 
L 151.4592 112.526516 
L 152.352 107.260374 
L 154.1376 107.260374 
L 155.0304 104.750812 
L 156.816 104.750812 
L 157.7088 103.92254 
L 158.6016 98.342439 
L 190.7424 98.342439 
L 191.6352 96.80293 
L 204.1344 96.80293 
L 205.0272 95.930424 
L 205.92 95.930424 
L 206.8128 93.716028 
L 221.0976 93.716028 
L 221.9904 92.073157 
L 224.6688 92.073157 
L 225.5616 91.538718 
L 226.4544 90.518148 
L 228.24 90.428546 
L 229.1328 87.633396 
L 237.168 87.633396 
L 238.0608 87.341598 
L 239.8464 87.236165 
L 241.632 87.236165 
L 242.5248 86.707089 
L 243.4176 86.707089 
L 244.3104 85.988997 
L 251.4528 85.956777 
L 252.3456 85.024194 
L 274.6656 85.024194 
L 275.5584 84.747394 
L 276.4512 84.747394 
L 277.344 84.540604 
L 280.9152 84.540604 
L 281.808 83.99278 
L 282.7008 83.792394 
L 293.4144 83.792394 
L 294.3072 82.480131 
L 299.664 82.480131 
L 301.4496 81.077135 
L 302.3424 80.623001 
L 303.2352 80.623001 
L 304.128 80.348755 
L 305.9136 80.348755 
L 306.8064 78.552101 
L 319.3056 78.552101 
L 320.1984 77.113865 
L 388.944 77.113865 
L 389.8368 75.934495 
L 394.3008 75.934495 
L 395.1936 75.14182 
L 398.7648 75.14182 
L 399.6576 72.141804 
L 400.5504 70.609046 
L 406.8 70.609046 
L 407.6928 69.949871 
L 408.5856 69.949871 
L 409.4784 69.335074 
L 410.3712 69.335074 
L 411.264 68.095542 
L 413.0496 68.095542 
L 413.9424 66.274771 
L 414.8352 63.765951 
L 416.6208 63.765951 
L 417.5136 61.975542 
L 418.4064 61.975542 
L 419.2992 59.372705 
L 420.192 59.372705 
L 421.0848 57.168487 
L 442.512 57.168487 
L 443.4048 56.417606 
L 450.5472 56.417606 
L 451.44 56.288759 
L 479.1168 56.221864 
L 480.0096 56.0785 
L 489.8304 56.068299 
L 517.5072 56.068299 
L 517.5072 56.068299 
" style="fill:none;stroke:#ff0000;stroke-linecap:square;"/>
   </g>
   <g id="patch_3">
    <path d="M 72 43.2 
L 518.4 43.2 
" style="fill:none;stroke:#000000;stroke-linecap:square;stroke-linejoin:miter;"/>
   </g>
   <g id="patch_4">
    <path d="M 518.4 388.8 
L 518.4 43.2 
" style="fill:none;stroke:#000000;stroke-linecap:square;stroke-linejoin:miter;"/>
   </g>
   <g id="patch_5">
    <path d="M 72 388.8 
L 518.4 388.8 
" style="fill:none;stroke:#000000;stroke-linecap:square;stroke-linejoin:miter;"/>
   </g>
   <g id="patch_6">
    <path d="M 72 388.8 
L 72 43.2 
" style="fill:none;stroke:#000000;stroke-linecap:square;stroke-linejoin:miter;"/>
   </g>
   <g id="matplotlib.axis_1">
    <g id="xtick_1">
     <g id="line2d_3">
      <path clip-path="url(#pa149647ef1)" d="M 72 388.8 
L 72 43.2 
" style="fill:none;stroke:#000000;stroke-dasharray:1.000000,3.000000;stroke-dashoffset:0.0;stroke-width:0.5;"/>
     </g>
     <g id="line2d_4">
      <defs>
       <path d="M 0 0 
L 0 -4 
" id="m9d3d02e539" style="stroke:#000000;stroke-width:0.5;"/>
      </defs>
      <g>
       <use style="stroke:#000000;stroke-width:0.5;" x="72.0" xlink:href="#m9d3d02e539" y="388.8"/>
      </g>
     </g>
     <g id="line2d_5">
      <defs>
       <path d="M 0 0 
L 0 4 
" id="m2b385152eb" style="stroke:#000000;stroke-width:0.5;"/>
      </defs>
      <g>
       <use style="stroke:#000000;stroke-width:0.5;" x="72.0" xlink:href="#m2b385152eb" y="43.2"/>
      </g>
     </g>
     <g id="text_1">
      <!-- 0 -->
      <defs>
       <path d="M 31.78125 66.40625 
Q 24.171875 66.40625 20.328125 58.90625 
Q 16.5 51.421875 16.5 36.375 
Q 16.5 21.390625 20.328125 13.890625 
Q 24.171875 6.390625 31.78125 6.390625 
Q 39.453125 6.390625 43.28125 13.890625 
Q 47.125 21.390625 47.125 36.375 
Q 47.125 51.421875 43.28125 58.90625 
Q 39.453125 66.40625 31.78125 66.40625 
M 31.78125 74.21875 
Q 44.046875 74.21875 50.515625 64.515625 
Q 56.984375 54.828125 56.984375 36.375 
Q 56.984375 17.96875 50.515625 8.265625 
Q 44.046875 -1.421875 31.78125 -1.421875 
Q 19.53125 -1.421875 13.0625 8.265625 
Q 6.59375 17.96875 6.59375 36.375 
Q 6.59375 54.828125 13.0625 64.515625 
Q 19.53125 74.21875 31.78125 74.21875 
" id="BitstreamVeraSans-Roman-30"/>
      </defs>
      <g transform="translate(68.1825 401.918125)scale(0.12 -0.12)">
       <use xlink:href="#BitstreamVeraSans-Roman-30"/>
      </g>
     </g>
    </g>
    <g id="xtick_2">
     <g id="line2d_6">
      <path clip-path="url(#pa149647ef1)" d="M 161.28 388.8 
L 161.28 43.2 
" style="fill:none;stroke:#000000;stroke-dasharray:1.000000,3.000000;stroke-dashoffset:0.0;stroke-width:0.5;"/>
     </g>
     <g id="line2d_7">
      <g>
       <use style="stroke:#000000;stroke-width:0.5;" x="161.28" xlink:href="#m9d3d02e539" y="388.8"/>
      </g>
     </g>
     <g id="line2d_8">
      <g>
       <use style="stroke:#000000;stroke-width:0.5;" x="161.28" xlink:href="#m2b385152eb" y="43.2"/>
      </g>
     </g>
     <g id="text_2">
      <!-- 100 -->
      <defs>
       <path d="M 12.40625 8.296875 
L 28.515625 8.296875 
L 28.515625 63.921875 
L 10.984375 60.40625 
L 10.984375 69.390625 
L 28.421875 72.90625 
L 38.28125 72.90625 
L 38.28125 8.296875 
L 54.390625 8.296875 
L 54.390625 0 
L 12.40625 0 
z
" id="BitstreamVeraSans-Roman-31"/>
      </defs>
      <g transform="translate(149.8275 401.918125)scale(0.12 -0.12)">
       <use xlink:href="#BitstreamVeraSans-Roman-31"/>
       <use x="63.623046875" xlink:href="#BitstreamVeraSans-Roman-30"/>
       <use x="127.24609375" xlink:href="#BitstreamVeraSans-Roman-30"/>
      </g>
     </g>
    </g>
    <g id="xtick_3">
     <g id="line2d_9">
      <path clip-path="url(#pa149647ef1)" d="M 250.56 388.8 
L 250.56 43.2 
" style="fill:none;stroke:#000000;stroke-dasharray:1.000000,3.000000;stroke-dashoffset:0.0;stroke-width:0.5;"/>
     </g>
     <g id="line2d_10">
      <g>
       <use style="stroke:#000000;stroke-width:0.5;" x="250.56" xlink:href="#m9d3d02e539" y="388.8"/>
      </g>
     </g>
     <g id="line2d_11">
      <g>
       <use style="stroke:#000000;stroke-width:0.5;" x="250.56" xlink:href="#m2b385152eb" y="43.2"/>
      </g>
     </g>
     <g id="text_3">
      <!-- 200 -->
      <defs>
       <path d="M 19.1875 8.296875 
L 53.609375 8.296875 
L 53.609375 0 
L 7.328125 0 
L 7.328125 8.296875 
Q 12.9375 14.109375 22.625 23.890625 
Q 32.328125 33.6875 34.8125 36.53125 
Q 39.546875 41.84375 41.421875 45.53125 
Q 43.3125 49.21875 43.3125 52.78125 
Q 43.3125 58.59375 39.234375 62.25 
Q 35.15625 65.921875 28.609375 65.921875 
Q 23.96875 65.921875 18.8125 64.3125 
Q 13.671875 62.703125 7.8125 59.421875 
L 7.8125 69.390625 
Q 13.765625 71.78125 18.9375 73 
Q 24.125 74.21875 28.421875 74.21875 
Q 39.75 74.21875 46.484375 68.546875 
Q 53.21875 62.890625 53.21875 53.421875 
Q 53.21875 48.921875 51.53125 44.890625 
Q 49.859375 40.875 45.40625 35.40625 
Q 44.1875 33.984375 37.640625 27.21875 
Q 31.109375 20.453125 19.1875 8.296875 
" id="BitstreamVeraSans-Roman-32"/>
      </defs>
      <g transform="translate(239.1075 401.918125)scale(0.12 -0.12)">
       <use xlink:href="#BitstreamVeraSans-Roman-32"/>
       <use x="63.623046875" xlink:href="#BitstreamVeraSans-Roman-30"/>
       <use x="127.24609375" xlink:href="#BitstreamVeraSans-Roman-30"/>
      </g>
     </g>
    </g>
    <g id="xtick_4">
     <g id="line2d_12">
      <path clip-path="url(#pa149647ef1)" d="M 339.84 388.8 
L 339.84 43.2 
" style="fill:none;stroke:#000000;stroke-dasharray:1.000000,3.000000;stroke-dashoffset:0.0;stroke-width:0.5;"/>
     </g>
     <g id="line2d_13">
      <g>
       <use style="stroke:#000000;stroke-width:0.5;" x="339.84" xlink:href="#m9d3d02e539" y="388.8"/>
      </g>
     </g>
     <g id="line2d_14">
      <g>
       <use style="stroke:#000000;stroke-width:0.5;" x="339.84" xlink:href="#m2b385152eb" y="43.2"/>
      </g>
     </g>
     <g id="text_4">
      <!-- 300 -->
      <defs>
       <path d="M 40.578125 39.3125 
Q 47.65625 37.796875 51.625 33 
Q 55.609375 28.21875 55.609375 21.1875 
Q 55.609375 10.40625 48.1875 4.484375 
Q 40.765625 -1.421875 27.09375 -1.421875 
Q 22.515625 -1.421875 17.65625 -0.515625 
Q 12.796875 0.390625 7.625 2.203125 
L 7.625 11.71875 
Q 11.71875 9.328125 16.59375 8.109375 
Q 21.484375 6.890625 26.8125 6.890625 
Q 36.078125 6.890625 40.9375 10.546875 
Q 45.796875 14.203125 45.796875 21.1875 
Q 45.796875 27.640625 41.28125 31.265625 
Q 36.765625 34.90625 28.71875 34.90625 
L 20.21875 34.90625 
L 20.21875 43.015625 
L 29.109375 43.015625 
Q 36.375 43.015625 40.234375 45.921875 
Q 44.09375 48.828125 44.09375 54.296875 
Q 44.09375 59.90625 40.109375 62.90625 
Q 36.140625 65.921875 28.71875 65.921875 
Q 24.65625 65.921875 20.015625 65.03125 
Q 15.375 64.15625 9.8125 62.3125 
L 9.8125 71.09375 
Q 15.4375 72.65625 20.34375 73.4375 
Q 25.25 74.21875 29.59375 74.21875 
Q 40.828125 74.21875 47.359375 69.109375 
Q 53.90625 64.015625 53.90625 55.328125 
Q 53.90625 49.265625 50.4375 45.09375 
Q 46.96875 40.921875 40.578125 39.3125 
" id="BitstreamVeraSans-Roman-33"/>
      </defs>
      <g transform="translate(328.3875 401.918125)scale(0.12 -0.12)">
       <use xlink:href="#BitstreamVeraSans-Roman-33"/>
       <use x="63.623046875" xlink:href="#BitstreamVeraSans-Roman-30"/>
       <use x="127.24609375" xlink:href="#BitstreamVeraSans-Roman-30"/>
      </g>
     </g>
    </g>
    <g id="xtick_5">
     <g id="line2d_15">
      <path clip-path="url(#pa149647ef1)" d="M 429.12 388.8 
L 429.12 43.2 
" style="fill:none;stroke:#000000;stroke-dasharray:1.000000,3.000000;stroke-dashoffset:0.0;stroke-width:0.5;"/>
     </g>
     <g id="line2d_16">
      <g>
       <use style="stroke:#000000;stroke-width:0.5;" x="429.12" xlink:href="#m9d3d02e539" y="388.8"/>
      </g>
     </g>
     <g id="line2d_17">
      <g>
       <use style="stroke:#000000;stroke-width:0.5;" x="429.12" xlink:href="#m2b385152eb" y="43.2"/>
      </g>
     </g>
     <g id="text_5">
      <!-- 400 -->
      <defs>
       <path d="M 37.796875 64.3125 
L 12.890625 25.390625 
L 37.796875 25.390625 
z
M 35.203125 72.90625 
L 47.609375 72.90625 
L 47.609375 25.390625 
L 58.015625 25.390625 
L 58.015625 17.1875 
L 47.609375 17.1875 
L 47.609375 0 
L 37.796875 0 
L 37.796875 17.1875 
L 4.890625 17.1875 
L 4.890625 26.703125 
z
" id="BitstreamVeraSans-Roman-34"/>
      </defs>
      <g transform="translate(417.6675 401.918125)scale(0.12 -0.12)">
       <use xlink:href="#BitstreamVeraSans-Roman-34"/>
       <use x="63.623046875" xlink:href="#BitstreamVeraSans-Roman-30"/>
       <use x="127.24609375" xlink:href="#BitstreamVeraSans-Roman-30"/>
      </g>
     </g>
    </g>
    <g id="xtick_6">
     <g id="line2d_18">
      <path clip-path="url(#pa149647ef1)" d="M 518.4 388.8 
L 518.4 43.2 
" style="fill:none;stroke:#000000;stroke-dasharray:1.000000,3.000000;stroke-dashoffset:0.0;stroke-width:0.5;"/>
     </g>
     <g id="line2d_19">
      <g>
       <use style="stroke:#000000;stroke-width:0.5;" x="518.4" xlink:href="#m9d3d02e539" y="388.8"/>
      </g>
     </g>
     <g id="line2d_20">
      <g>
       <use style="stroke:#000000;stroke-width:0.5;" x="518.4" xlink:href="#m2b385152eb" y="43.2"/>
      </g>
     </g>
     <g id="text_6">
      <!-- 500 -->
      <defs>
       <path d="M 10.796875 72.90625 
L 49.515625 72.90625 
L 49.515625 64.59375 
L 19.828125 64.59375 
L 19.828125 46.734375 
Q 21.96875 47.46875 24.109375 47.828125 
Q 26.265625 48.1875 28.421875 48.1875 
Q 40.625 48.1875 47.75 41.5 
Q 54.890625 34.8125 54.890625 23.390625 
Q 54.890625 11.625 47.5625 5.09375 
Q 40.234375 -1.421875 26.90625 -1.421875 
Q 22.3125 -1.421875 17.546875 -0.640625 
Q 12.796875 0.140625 7.71875 1.703125 
L 7.71875 11.625 
Q 12.109375 9.234375 16.796875 8.0625 
Q 21.484375 6.890625 26.703125 6.890625 
Q 35.15625 6.890625 40.078125 11.328125 
Q 45.015625 15.765625 45.015625 23.390625 
Q 45.015625 31 40.078125 35.4375 
Q 35.15625 39.890625 26.703125 39.890625 
Q 22.75 39.890625 18.8125 39.015625 
Q 14.890625 38.140625 10.796875 36.28125 
z
" id="BitstreamVeraSans-Roman-35"/>
      </defs>
      <g transform="translate(506.9475 401.918125)scale(0.12 -0.12)">
       <use xlink:href="#BitstreamVeraSans-Roman-35"/>
       <use x="63.623046875" xlink:href="#BitstreamVeraSans-Roman-30"/>
       <use x="127.24609375" xlink:href="#BitstreamVeraSans-Roman-30"/>
      </g>
     </g>
    </g>
    <g id="text_7">
     <!-- Generations -->
     <defs>
      <path d="M 54.890625 33.015625 
L 54.890625 0 
L 45.90625 0 
L 45.90625 32.71875 
Q 45.90625 40.484375 42.875 44.328125 
Q 39.84375 48.1875 33.796875 48.1875 
Q 26.515625 48.1875 22.3125 43.546875 
Q 18.109375 38.921875 18.109375 30.90625 
L 18.109375 0 
L 9.078125 0 
L 9.078125 54.6875 
L 18.109375 54.6875 
L 18.109375 46.1875 
Q 21.34375 51.125 25.703125 53.5625 
Q 30.078125 56 35.796875 56 
Q 45.21875 56 50.046875 50.171875 
Q 54.890625 44.34375 54.890625 33.015625 
" id="BitstreamVeraSans-Roman-6e"/>
      <path d="M 41.109375 46.296875 
Q 39.59375 47.171875 37.8125 47.578125 
Q 36.03125 48 33.890625 48 
Q 26.265625 48 22.1875 43.046875 
Q 18.109375 38.09375 18.109375 28.8125 
L 18.109375 0 
L 9.078125 0 
L 9.078125 54.6875 
L 18.109375 54.6875 
L 18.109375 46.1875 
Q 20.953125 51.171875 25.484375 53.578125 
Q 30.03125 56 36.53125 56 
Q 37.453125 56 38.578125 55.875 
Q 39.703125 55.765625 41.0625 55.515625 
z
" id="BitstreamVeraSans-Roman-72"/>
      <path d="M 30.609375 48.390625 
Q 23.390625 48.390625 19.1875 42.75 
Q 14.984375 37.109375 14.984375 27.296875 
Q 14.984375 17.484375 19.15625 11.84375 
Q 23.34375 6.203125 30.609375 6.203125 
Q 37.796875 6.203125 41.984375 11.859375 
Q 46.1875 17.53125 46.1875 27.296875 
Q 46.1875 37.015625 41.984375 42.703125 
Q 37.796875 48.390625 30.609375 48.390625 
M 30.609375 56 
Q 42.328125 56 49.015625 48.375 
Q 55.71875 40.765625 55.71875 27.296875 
Q 55.71875 13.875 49.015625 6.21875 
Q 42.328125 -1.421875 30.609375 -1.421875 
Q 18.84375 -1.421875 12.171875 6.21875 
Q 5.515625 13.875 5.515625 27.296875 
Q 5.515625 40.765625 12.171875 48.375 
Q 18.84375 56 30.609375 56 
" id="BitstreamVeraSans-Roman-6f"/>
      <path d="M 59.515625 10.40625 
L 59.515625 29.984375 
L 43.40625 29.984375 
L 43.40625 38.09375 
L 69.28125 38.09375 
L 69.28125 6.78125 
Q 63.578125 2.734375 56.6875 0.65625 
Q 49.8125 -1.421875 42 -1.421875 
Q 24.90625 -1.421875 15.25 8.5625 
Q 5.609375 18.5625 5.609375 36.375 
Q 5.609375 54.25 15.25 64.234375 
Q 24.90625 74.21875 42 74.21875 
Q 49.125 74.21875 55.546875 72.453125 
Q 61.96875 70.703125 67.390625 67.28125 
L 67.390625 56.78125 
Q 61.921875 61.421875 55.765625 63.765625 
Q 49.609375 66.109375 42.828125 66.109375 
Q 29.4375 66.109375 22.71875 58.640625 
Q 16.015625 51.171875 16.015625 36.375 
Q 16.015625 21.625 22.71875 14.15625 
Q 29.4375 6.6875 42.828125 6.6875 
Q 48.046875 6.6875 52.140625 7.59375 
Q 56.25 8.5 59.515625 10.40625 
" id="BitstreamVeraSans-Roman-47"/>
      <path d="M 9.421875 54.6875 
L 18.40625 54.6875 
L 18.40625 0 
L 9.421875 0 
z
M 9.421875 75.984375 
L 18.40625 75.984375 
L 18.40625 64.59375 
L 9.421875 64.59375 
z
" id="BitstreamVeraSans-Roman-69"/>
      <path d="M 56.203125 29.59375 
L 56.203125 25.203125 
L 14.890625 25.203125 
Q 15.484375 15.921875 20.484375 11.0625 
Q 25.484375 6.203125 34.421875 6.203125 
Q 39.59375 6.203125 44.453125 7.46875 
Q 49.3125 8.734375 54.109375 11.28125 
L 54.109375 2.78125 
Q 49.265625 0.734375 44.1875 -0.34375 
Q 39.109375 -1.421875 33.890625 -1.421875 
Q 20.796875 -1.421875 13.15625 6.1875 
Q 5.515625 13.8125 5.515625 26.8125 
Q 5.515625 40.234375 12.765625 48.109375 
Q 20.015625 56 32.328125 56 
Q 43.359375 56 49.78125 48.890625 
Q 56.203125 41.796875 56.203125 29.59375 
M 47.21875 32.234375 
Q 47.125 39.59375 43.09375 43.984375 
Q 39.0625 48.390625 32.421875 48.390625 
Q 24.90625 48.390625 20.390625 44.140625 
Q 15.875 39.890625 15.1875 32.171875 
z
" id="BitstreamVeraSans-Roman-65"/>
      <path d="M 18.3125 70.21875 
L 18.3125 54.6875 
L 36.8125 54.6875 
L 36.8125 47.703125 
L 18.3125 47.703125 
L 18.3125 18.015625 
Q 18.3125 11.328125 20.140625 9.421875 
Q 21.96875 7.515625 27.59375 7.515625 
L 36.8125 7.515625 
L 36.8125 0 
L 27.59375 0 
Q 17.1875 0 13.234375 3.875 
Q 9.28125 7.765625 9.28125 18.015625 
L 9.28125 47.703125 
L 2.6875 47.703125 
L 2.6875 54.6875 
L 9.28125 54.6875 
L 9.28125 70.21875 
z
" id="BitstreamVeraSans-Roman-74"/>
      <path d="M 34.28125 27.484375 
Q 23.390625 27.484375 19.1875 25 
Q 14.984375 22.515625 14.984375 16.5 
Q 14.984375 11.71875 18.140625 8.90625 
Q 21.296875 6.109375 26.703125 6.109375 
Q 34.1875 6.109375 38.703125 11.40625 
Q 43.21875 16.703125 43.21875 25.484375 
L 43.21875 27.484375 
z
M 52.203125 31.203125 
L 52.203125 0 
L 43.21875 0 
L 43.21875 8.296875 
Q 40.140625 3.328125 35.546875 0.953125 
Q 30.953125 -1.421875 24.3125 -1.421875 
Q 15.921875 -1.421875 10.953125 3.296875 
Q 6 8.015625 6 15.921875 
Q 6 25.140625 12.171875 29.828125 
Q 18.359375 34.515625 30.609375 34.515625 
L 43.21875 34.515625 
L 43.21875 35.40625 
Q 43.21875 41.609375 39.140625 45 
Q 35.0625 48.390625 27.6875 48.390625 
Q 23 48.390625 18.546875 47.265625 
Q 14.109375 46.140625 10.015625 43.890625 
L 10.015625 52.203125 
Q 14.9375 54.109375 19.578125 55.046875 
Q 24.21875 56 28.609375 56 
Q 40.484375 56 46.34375 49.84375 
Q 52.203125 43.703125 52.203125 31.203125 
" id="BitstreamVeraSans-Roman-61"/>
      <path d="M 44.28125 53.078125 
L 44.28125 44.578125 
Q 40.484375 46.53125 36.375 47.5 
Q 32.28125 48.484375 27.875 48.484375 
Q 21.1875 48.484375 17.84375 46.4375 
Q 14.5 44.390625 14.5 40.28125 
Q 14.5 37.15625 16.890625 35.375 
Q 19.28125 33.59375 26.515625 31.984375 
L 29.59375 31.296875 
Q 39.15625 29.25 43.1875 25.515625 
Q 47.21875 21.78125 47.21875 15.09375 
Q 47.21875 7.46875 41.1875 3.015625 
Q 35.15625 -1.421875 24.609375 -1.421875 
Q 20.21875 -1.421875 15.453125 -0.5625 
Q 10.6875 0.296875 5.421875 2 
L 5.421875 11.28125 
Q 10.40625 8.6875 15.234375 7.390625 
Q 20.0625 6.109375 24.8125 6.109375 
Q 31.15625 6.109375 34.5625 8.28125 
Q 37.984375 10.453125 37.984375 14.40625 
Q 37.984375 18.0625 35.515625 20.015625 
Q 33.0625 21.96875 24.703125 23.78125 
L 21.578125 24.515625 
Q 13.234375 26.265625 9.515625 29.90625 
Q 5.8125 33.546875 5.8125 39.890625 
Q 5.8125 47.609375 11.28125 51.796875 
Q 16.75 56 26.8125 56 
Q 31.78125 56 36.171875 55.265625 
Q 40.578125 54.546875 44.28125 53.078125 
" id="BitstreamVeraSans-Roman-73"/>
     </defs>
     <g transform="translate(258.6028125 418.531875)scale(0.12 -0.12)">
      <use xlink:href="#BitstreamVeraSans-Roman-47"/>
      <use x="77.490234375" xlink:href="#BitstreamVeraSans-Roman-65"/>
      <use x="139.013671875" xlink:href="#BitstreamVeraSans-Roman-6e"/>
      <use x="202.392578125" xlink:href="#BitstreamVeraSans-Roman-65"/>
      <use x="263.916015625" xlink:href="#BitstreamVeraSans-Roman-72"/>
      <use x="305.029296875" xlink:href="#BitstreamVeraSans-Roman-61"/>
      <use x="366.30859375" xlink:href="#BitstreamVeraSans-Roman-74"/>
      <use x="405.517578125" xlink:href="#BitstreamVeraSans-Roman-69"/>
      <use x="433.30078125" xlink:href="#BitstreamVeraSans-Roman-6f"/>
      <use x="494.482421875" xlink:href="#BitstreamVeraSans-Roman-6e"/>
      <use x="557.861328125" xlink:href="#BitstreamVeraSans-Roman-73"/>
     </g>
    </g>
   </g>
   <g id="matplotlib.axis_2">
    <g id="ytick_1">
     <g id="line2d_21">
      <path clip-path="url(#pa149647ef1)" d="M 72 388.8 
L 518.4 388.8 
" style="fill:none;stroke:#000000;stroke-dasharray:1.000000,3.000000;stroke-dashoffset:0.0;stroke-width:0.5;"/>
     </g>
     <g id="line2d_22">
      <defs>
       <path d="M 0 0 
L 4 0 
" id="m71325ec584" style="stroke:#000000;stroke-width:0.5;"/>
      </defs>
      <g>
       <use style="stroke:#000000;stroke-width:0.5;" x="72.0" xlink:href="#m71325ec584" y="388.8"/>
      </g>
     </g>
     <g id="line2d_23">
      <defs>
       <path d="M 0 0 
L -4 0 
" id="mef9a5525aa" style="stroke:#000000;stroke-width:0.5;"/>
      </defs>
      <g>
       <use style="stroke:#000000;stroke-width:0.5;" x="518.4" xlink:href="#mef9a5525aa" y="388.8"/>
      </g>
     </g>
     <g id="text_8">
      <!-- −75 -->
      <defs>
       <path d="M 10.59375 35.5 
L 73.1875 35.5 
L 73.1875 27.203125 
L 10.59375 27.203125 
z
" id="BitstreamVeraSans-Roman-2212"/>
       <path d="M 8.203125 72.90625 
L 55.078125 72.90625 
L 55.078125 68.703125 
L 28.609375 0 
L 18.3125 0 
L 43.21875 64.59375 
L 8.203125 64.59375 
z
" id="BitstreamVeraSans-Roman-37"/>
      </defs>
      <g transform="translate(42.674375 392.11125)scale(0.12 -0.12)">
       <use xlink:href="#BitstreamVeraSans-Roman-2212"/>
       <use x="83.7890625" xlink:href="#BitstreamVeraSans-Roman-37"/>
       <use x="147.412109375" xlink:href="#BitstreamVeraSans-Roman-35"/>
      </g>
     </g>
    </g>
    <g id="ytick_2">
     <g id="line2d_24">
      <path clip-path="url(#pa149647ef1)" d="M 72 345.6 
L 518.4 345.6 
" style="fill:none;stroke:#000000;stroke-dasharray:1.000000,3.000000;stroke-dashoffset:0.0;stroke-width:0.5;"/>
     </g>
     <g id="line2d_25">
      <g>
       <use style="stroke:#000000;stroke-width:0.5;" x="72.0" xlink:href="#m71325ec584" y="345.6"/>
      </g>
     </g>
     <g id="line2d_26">
      <g>
       <use style="stroke:#000000;stroke-width:0.5;" x="518.4" xlink:href="#mef9a5525aa" y="345.6"/>
      </g>
     </g>
     <g id="text_9">
      <!-- −70 -->
      <g transform="translate(42.674375 348.91125)scale(0.12 -0.12)">
       <use xlink:href="#BitstreamVeraSans-Roman-2212"/>
       <use x="83.7890625" xlink:href="#BitstreamVeraSans-Roman-37"/>
       <use x="147.412109375" xlink:href="#BitstreamVeraSans-Roman-30"/>
      </g>
     </g>
    </g>
    <g id="ytick_3">
     <g id="line2d_27">
      <path clip-path="url(#pa149647ef1)" d="M 72 302.4 
L 518.4 302.4 
" style="fill:none;stroke:#000000;stroke-dasharray:1.000000,3.000000;stroke-dashoffset:0.0;stroke-width:0.5;"/>
     </g>
     <g id="line2d_28">
      <g>
       <use style="stroke:#000000;stroke-width:0.5;" x="72.0" xlink:href="#m71325ec584" y="302.4"/>
      </g>
     </g>
     <g id="line2d_29">
      <g>
       <use style="stroke:#000000;stroke-width:0.5;" x="518.4" xlink:href="#mef9a5525aa" y="302.4"/>
      </g>
     </g>
     <g id="text_10">
      <!-- −65 -->
      <defs>
       <path d="M 33.015625 40.375 
Q 26.375 40.375 22.484375 35.828125 
Q 18.609375 31.296875 18.609375 23.390625 
Q 18.609375 15.53125 22.484375 10.953125 
Q 26.375 6.390625 33.015625 6.390625 
Q 39.65625 6.390625 43.53125 10.953125 
Q 47.40625 15.53125 47.40625 23.390625 
Q 47.40625 31.296875 43.53125 35.828125 
Q 39.65625 40.375 33.015625 40.375 
M 52.59375 71.296875 
L 52.59375 62.3125 
Q 48.875 64.0625 45.09375 64.984375 
Q 41.3125 65.921875 37.59375 65.921875 
Q 27.828125 65.921875 22.671875 59.328125 
Q 17.53125 52.734375 16.796875 39.40625 
Q 19.671875 43.65625 24.015625 45.921875 
Q 28.375 48.1875 33.59375 48.1875 
Q 44.578125 48.1875 50.953125 41.515625 
Q 57.328125 34.859375 57.328125 23.390625 
Q 57.328125 12.15625 50.6875 5.359375 
Q 44.046875 -1.421875 33.015625 -1.421875 
Q 20.359375 -1.421875 13.671875 8.265625 
Q 6.984375 17.96875 6.984375 36.375 
Q 6.984375 53.65625 15.1875 63.9375 
Q 23.390625 74.21875 37.203125 74.21875 
Q 40.921875 74.21875 44.703125 73.484375 
Q 48.484375 72.75 52.59375 71.296875 
" id="BitstreamVeraSans-Roman-36"/>
      </defs>
      <g transform="translate(42.674375 305.71125)scale(0.12 -0.12)">
       <use xlink:href="#BitstreamVeraSans-Roman-2212"/>
       <use x="83.7890625" xlink:href="#BitstreamVeraSans-Roman-36"/>
       <use x="147.412109375" xlink:href="#BitstreamVeraSans-Roman-35"/>
      </g>
     </g>
    </g>
    <g id="ytick_4">
     <g id="line2d_30">
      <path clip-path="url(#pa149647ef1)" d="M 72 259.2 
L 518.4 259.2 
" style="fill:none;stroke:#000000;stroke-dasharray:1.000000,3.000000;stroke-dashoffset:0.0;stroke-width:0.5;"/>
     </g>
     <g id="line2d_31">
      <g>
       <use style="stroke:#000000;stroke-width:0.5;" x="72.0" xlink:href="#m71325ec584" y="259.2"/>
      </g>
     </g>
     <g id="line2d_32">
      <g>
       <use style="stroke:#000000;stroke-width:0.5;" x="518.4" xlink:href="#mef9a5525aa" y="259.2"/>
      </g>
     </g>
     <g id="text_11">
      <!-- −60 -->
      <g transform="translate(42.674375 262.51125)scale(0.12 -0.12)">
       <use xlink:href="#BitstreamVeraSans-Roman-2212"/>
       <use x="83.7890625" xlink:href="#BitstreamVeraSans-Roman-36"/>
       <use x="147.412109375" xlink:href="#BitstreamVeraSans-Roman-30"/>
      </g>
     </g>
    </g>
    <g id="ytick_5">
     <g id="line2d_33">
      <path clip-path="url(#pa149647ef1)" d="M 72 216 
L 518.4 216 
" style="fill:none;stroke:#000000;stroke-dasharray:1.000000,3.000000;stroke-dashoffset:0.0;stroke-width:0.5;"/>
     </g>
     <g id="line2d_34">
      <g>
       <use style="stroke:#000000;stroke-width:0.5;" x="72.0" xlink:href="#m71325ec584" y="216.0"/>
      </g>
     </g>
     <g id="line2d_35">
      <g>
       <use style="stroke:#000000;stroke-width:0.5;" x="518.4" xlink:href="#mef9a5525aa" y="216.0"/>
      </g>
     </g>
     <g id="text_12">
      <!-- −55 -->
      <g transform="translate(42.674375 219.31125)scale(0.12 -0.12)">
       <use xlink:href="#BitstreamVeraSans-Roman-2212"/>
       <use x="83.7890625" xlink:href="#BitstreamVeraSans-Roman-35"/>
       <use x="147.412109375" xlink:href="#BitstreamVeraSans-Roman-35"/>
      </g>
     </g>
    </g>
    <g id="ytick_6">
     <g id="line2d_36">
      <path clip-path="url(#pa149647ef1)" d="M 72 172.8 
L 518.4 172.8 
" style="fill:none;stroke:#000000;stroke-dasharray:1.000000,3.000000;stroke-dashoffset:0.0;stroke-width:0.5;"/>
     </g>
     <g id="line2d_37">
      <g>
       <use style="stroke:#000000;stroke-width:0.5;" x="72.0" xlink:href="#m71325ec584" y="172.8"/>
      </g>
     </g>
     <g id="line2d_38">
      <g>
       <use style="stroke:#000000;stroke-width:0.5;" x="518.4" xlink:href="#mef9a5525aa" y="172.8"/>
      </g>
     </g>
     <g id="text_13">
      <!-- −50 -->
      <g transform="translate(42.674375 176.11125)scale(0.12 -0.12)">
       <use xlink:href="#BitstreamVeraSans-Roman-2212"/>
       <use x="83.7890625" xlink:href="#BitstreamVeraSans-Roman-35"/>
       <use x="147.412109375" xlink:href="#BitstreamVeraSans-Roman-30"/>
      </g>
     </g>
    </g>
    <g id="ytick_7">
     <g id="line2d_39">
      <path clip-path="url(#pa149647ef1)" d="M 72 129.6 
L 518.4 129.6 
" style="fill:none;stroke:#000000;stroke-dasharray:1.000000,3.000000;stroke-dashoffset:0.0;stroke-width:0.5;"/>
     </g>
     <g id="line2d_40">
      <g>
       <use style="stroke:#000000;stroke-width:0.5;" x="72.0" xlink:href="#m71325ec584" y="129.6"/>
      </g>
     </g>
     <g id="line2d_41">
      <g>
       <use style="stroke:#000000;stroke-width:0.5;" x="518.4" xlink:href="#mef9a5525aa" y="129.6"/>
      </g>
     </g>
     <g id="text_14">
      <!-- −45 -->
      <g transform="translate(42.674375 132.91125)scale(0.12 -0.12)">
       <use xlink:href="#BitstreamVeraSans-Roman-2212"/>
       <use x="83.7890625" xlink:href="#BitstreamVeraSans-Roman-34"/>
       <use x="147.412109375" xlink:href="#BitstreamVeraSans-Roman-35"/>
      </g>
     </g>
    </g>
    <g id="ytick_8">
     <g id="line2d_42">
      <path clip-path="url(#pa149647ef1)" d="M 72 86.4 
L 518.4 86.4 
" style="fill:none;stroke:#000000;stroke-dasharray:1.000000,3.000000;stroke-dashoffset:0.0;stroke-width:0.5;"/>
     </g>
     <g id="line2d_43">
      <g>
       <use style="stroke:#000000;stroke-width:0.5;" x="72.0" xlink:href="#m71325ec584" y="86.4"/>
      </g>
     </g>
     <g id="line2d_44">
      <g>
       <use style="stroke:#000000;stroke-width:0.5;" x="518.4" xlink:href="#mef9a5525aa" y="86.4"/>
      </g>
     </g>
     <g id="text_15">
      <!-- −40 -->
      <g transform="translate(42.674375 89.71125)scale(0.12 -0.12)">
       <use xlink:href="#BitstreamVeraSans-Roman-2212"/>
       <use x="83.7890625" xlink:href="#BitstreamVeraSans-Roman-34"/>
       <use x="147.412109375" xlink:href="#BitstreamVeraSans-Roman-30"/>
      </g>
     </g>
    </g>
    <g id="ytick_9">
     <g id="line2d_45">
      <path clip-path="url(#pa149647ef1)" d="M 72 43.2 
L 518.4 43.2 
" style="fill:none;stroke:#000000;stroke-dasharray:1.000000,3.000000;stroke-dashoffset:0.0;stroke-width:0.5;"/>
     </g>
     <g id="line2d_46">
      <g>
       <use style="stroke:#000000;stroke-width:0.5;" x="72.0" xlink:href="#m71325ec584" y="43.2"/>
      </g>
     </g>
     <g id="line2d_47">
      <g>
       <use style="stroke:#000000;stroke-width:0.5;" x="518.4" xlink:href="#mef9a5525aa" y="43.2"/>
      </g>
     </g>
     <g id="text_16">
      <!-- −35 -->
      <g transform="translate(42.674375 46.51125)scale(0.12 -0.12)">
       <use xlink:href="#BitstreamVeraSans-Roman-2212"/>
       <use x="83.7890625" xlink:href="#BitstreamVeraSans-Roman-33"/>
       <use x="147.412109375" xlink:href="#BitstreamVeraSans-Roman-35"/>
      </g>
     </g>
    </g>
    <g id="text_17">
     <!-- Fitness -->
     <defs>
      <path d="M 9.8125 72.90625 
L 51.703125 72.90625 
L 51.703125 64.59375 
L 19.671875 64.59375 
L 19.671875 43.109375 
L 48.578125 43.109375 
L 48.578125 34.8125 
L 19.671875 34.8125 
L 19.671875 0 
L 9.8125 0 
z
" id="BitstreamVeraSans-Roman-46"/>
     </defs>
     <g transform="translate(35.17875 237.2090625)rotate(-90.0)scale(0.12 -0.12)">
      <use xlink:href="#BitstreamVeraSans-Roman-46"/>
      <use x="57.41015625" xlink:href="#BitstreamVeraSans-Roman-69"/>
      <use x="85.193359375" xlink:href="#BitstreamVeraSans-Roman-74"/>
      <use x="124.40234375" xlink:href="#BitstreamVeraSans-Roman-6e"/>
      <use x="187.78125" xlink:href="#BitstreamVeraSans-Roman-65"/>
      <use x="249.3046875" xlink:href="#BitstreamVeraSans-Roman-73"/>
      <use x="301.404296875" xlink:href="#BitstreamVeraSans-Roman-73"/>
     </g>
    </g>
   </g>
   <g id="text_18">
    <!-- Population's average and best fitness -->
    <defs>
     <path id="BitstreamVeraSans-Roman-20"/>
     <path d="M 37.109375 75.984375 
L 37.109375 68.5 
L 28.515625 68.5 
Q 23.6875 68.5 21.796875 66.546875 
Q 19.921875 64.59375 19.921875 59.515625 
L 19.921875 54.6875 
L 34.71875 54.6875 
L 34.71875 47.703125 
L 19.921875 47.703125 
L 19.921875 0 
L 10.890625 0 
L 10.890625 47.703125 
L 2.296875 47.703125 
L 2.296875 54.6875 
L 10.890625 54.6875 
L 10.890625 58.5 
Q 10.890625 67.625 15.140625 71.796875 
Q 19.390625 75.984375 28.609375 75.984375 
z
" id="BitstreamVeraSans-Roman-66"/>
     <path d="M 17.921875 72.90625 
L 17.921875 45.796875 
L 9.625 45.796875 
L 9.625 72.90625 
z
" id="BitstreamVeraSans-Roman-27"/>
     <path d="M 9.421875 75.984375 
L 18.40625 75.984375 
L 18.40625 0 
L 9.421875 0 
z
" id="BitstreamVeraSans-Roman-6c"/>
     <path d="M 19.671875 64.796875 
L 19.671875 37.40625 
L 32.078125 37.40625 
Q 38.96875 37.40625 42.71875 40.96875 
Q 46.484375 44.53125 46.484375 51.125 
Q 46.484375 57.671875 42.71875 61.234375 
Q 38.96875 64.796875 32.078125 64.796875 
z
M 9.8125 72.90625 
L 32.078125 72.90625 
Q 44.34375 72.90625 50.609375 67.359375 
Q 56.890625 61.8125 56.890625 51.125 
Q 56.890625 40.328125 50.609375 34.8125 
Q 44.34375 29.296875 32.078125 29.296875 
L 19.671875 29.296875 
L 19.671875 0 
L 9.8125 0 
z
" id="BitstreamVeraSans-Roman-50"/>
     <path d="M 2.984375 54.6875 
L 12.5 54.6875 
L 29.59375 8.796875 
L 46.6875 54.6875 
L 56.203125 54.6875 
L 35.6875 0 
L 23.484375 0 
z
" id="BitstreamVeraSans-Roman-76"/>
     <path d="M 45.40625 46.390625 
L 45.40625 75.984375 
L 54.390625 75.984375 
L 54.390625 0 
L 45.40625 0 
L 45.40625 8.203125 
Q 42.578125 3.328125 38.25 0.953125 
Q 33.9375 -1.421875 27.875 -1.421875 
Q 17.96875 -1.421875 11.734375 6.484375 
Q 5.515625 14.40625 5.515625 27.296875 
Q 5.515625 40.1875 11.734375 48.09375 
Q 17.96875 56 27.875 56 
Q 33.9375 56 38.25 53.625 
Q 42.578125 51.265625 45.40625 46.390625 
M 14.796875 27.296875 
Q 14.796875 17.390625 18.875 11.75 
Q 22.953125 6.109375 30.078125 6.109375 
Q 37.203125 6.109375 41.296875 11.75 
Q 45.40625 17.390625 45.40625 27.296875 
Q 45.40625 37.203125 41.296875 42.84375 
Q 37.203125 48.484375 30.078125 48.484375 
Q 22.953125 48.484375 18.875 42.84375 
Q 14.796875 37.203125 14.796875 27.296875 
" id="BitstreamVeraSans-Roman-64"/>
     <path d="M 45.40625 27.984375 
Q 45.40625 37.75 41.375 43.109375 
Q 37.359375 48.484375 30.078125 48.484375 
Q 22.859375 48.484375 18.828125 43.109375 
Q 14.796875 37.75 14.796875 27.984375 
Q 14.796875 18.265625 18.828125 12.890625 
Q 22.859375 7.515625 30.078125 7.515625 
Q 37.359375 7.515625 41.375 12.890625 
Q 45.40625 18.265625 45.40625 27.984375 
M 54.390625 6.78125 
Q 54.390625 -7.171875 48.1875 -13.984375 
Q 42 -20.796875 29.203125 -20.796875 
Q 24.46875 -20.796875 20.265625 -20.09375 
Q 16.0625 -19.390625 12.109375 -17.921875 
L 12.109375 -9.1875 
Q 16.0625 -11.328125 19.921875 -12.34375 
Q 23.78125 -13.375 27.78125 -13.375 
Q 36.625 -13.375 41.015625 -8.765625 
Q 45.40625 -4.15625 45.40625 5.171875 
L 45.40625 9.625 
Q 42.625 4.78125 38.28125 2.390625 
Q 33.9375 0 27.875 0 
Q 17.828125 0 11.671875 7.65625 
Q 5.515625 15.328125 5.515625 27.984375 
Q 5.515625 40.671875 11.671875 48.328125 
Q 17.828125 56 27.875 56 
Q 33.9375 56 38.28125 53.609375 
Q 42.625 51.21875 45.40625 46.390625 
L 45.40625 54.6875 
L 54.390625 54.6875 
z
" id="BitstreamVeraSans-Roman-67"/>
     <path d="M 8.5 21.578125 
L 8.5 54.6875 
L 17.484375 54.6875 
L 17.484375 21.921875 
Q 17.484375 14.15625 20.5 10.265625 
Q 23.53125 6.390625 29.59375 6.390625 
Q 36.859375 6.390625 41.078125 11.03125 
Q 45.3125 15.671875 45.3125 23.6875 
L 45.3125 54.6875 
L 54.296875 54.6875 
L 54.296875 0 
L 45.3125 0 
L 45.3125 8.40625 
Q 42.046875 3.421875 37.71875 1 
Q 33.40625 -1.421875 27.6875 -1.421875 
Q 18.265625 -1.421875 13.375 4.4375 
Q 8.5 10.296875 8.5 21.578125 
" id="BitstreamVeraSans-Roman-75"/>
     <path d="M 18.109375 8.203125 
L 18.109375 -20.796875 
L 9.078125 -20.796875 
L 9.078125 54.6875 
L 18.109375 54.6875 
L 18.109375 46.390625 
Q 20.953125 51.265625 25.265625 53.625 
Q 29.59375 56 35.59375 56 
Q 45.5625 56 51.78125 48.09375 
Q 58.015625 40.1875 58.015625 27.296875 
Q 58.015625 14.40625 51.78125 6.484375 
Q 45.5625 -1.421875 35.59375 -1.421875 
Q 29.59375 -1.421875 25.265625 0.953125 
Q 20.953125 3.328125 18.109375 8.203125 
M 48.6875 27.296875 
Q 48.6875 37.203125 44.609375 42.84375 
Q 40.53125 48.484375 33.40625 48.484375 
Q 26.265625 48.484375 22.1875 42.84375 
Q 18.109375 37.203125 18.109375 27.296875 
Q 18.109375 17.390625 22.1875 11.75 
Q 26.265625 6.109375 33.40625 6.109375 
Q 40.53125 6.109375 44.609375 11.75 
Q 48.6875 17.390625 48.6875 27.296875 
" id="BitstreamVeraSans-Roman-70"/>
     <path d="M 48.6875 27.296875 
Q 48.6875 37.203125 44.609375 42.84375 
Q 40.53125 48.484375 33.40625 48.484375 
Q 26.265625 48.484375 22.1875 42.84375 
Q 18.109375 37.203125 18.109375 27.296875 
Q 18.109375 17.390625 22.1875 11.75 
Q 26.265625 6.109375 33.40625 6.109375 
Q 40.53125 6.109375 44.609375 11.75 
Q 48.6875 17.390625 48.6875 27.296875 
M 18.109375 46.390625 
Q 20.953125 51.265625 25.265625 53.625 
Q 29.59375 56 35.59375 56 
Q 45.5625 56 51.78125 48.09375 
Q 58.015625 40.1875 58.015625 27.296875 
Q 58.015625 14.40625 51.78125 6.484375 
Q 45.5625 -1.421875 35.59375 -1.421875 
Q 29.59375 -1.421875 25.265625 0.953125 
Q 20.953125 3.328125 18.109375 8.203125 
L 18.109375 0 
L 9.078125 0 
L 9.078125 75.984375 
L 18.109375 75.984375 
z
" id="BitstreamVeraSans-Roman-62"/>
    </defs>
    <g transform="translate(159.786 38.2)scale(0.144 -0.144)">
     <use xlink:href="#BitstreamVeraSans-Roman-50"/>
     <use x="60.255859375" xlink:href="#BitstreamVeraSans-Roman-6f"/>
     <use x="121.4375" xlink:href="#BitstreamVeraSans-Roman-70"/>
     <use x="184.9140625" xlink:href="#BitstreamVeraSans-Roman-75"/>
     <use x="248.29296875" xlink:href="#BitstreamVeraSans-Roman-6c"/>
     <use x="276.076171875" xlink:href="#BitstreamVeraSans-Roman-61"/>
     <use x="337.35546875" xlink:href="#BitstreamVeraSans-Roman-74"/>
     <use x="376.564453125" xlink:href="#BitstreamVeraSans-Roman-69"/>
     <use x="404.34765625" xlink:href="#BitstreamVeraSans-Roman-6f"/>
     <use x="465.529296875" xlink:href="#BitstreamVeraSans-Roman-6e"/>
     <use x="528.908203125" xlink:href="#BitstreamVeraSans-Roman-27"/>
     <use x="556.3984375" xlink:href="#BitstreamVeraSans-Roman-73"/>
     <use x="608.498046875" xlink:href="#BitstreamVeraSans-Roman-20"/>
     <use x="640.28515625" xlink:href="#BitstreamVeraSans-Roman-61"/>
     <use x="701.564453125" xlink:href="#BitstreamVeraSans-Roman-76"/>
     <use x="760.744140625" xlink:href="#BitstreamVeraSans-Roman-65"/>
     <use x="822.267578125" xlink:href="#BitstreamVeraSans-Roman-72"/>
     <use x="863.380859375" xlink:href="#BitstreamVeraSans-Roman-61"/>
     <use x="924.66015625" xlink:href="#BitstreamVeraSans-Roman-67"/>
     <use x="988.13671875" xlink:href="#BitstreamVeraSans-Roman-65"/>
     <use x="1049.66015625" xlink:href="#BitstreamVeraSans-Roman-20"/>
     <use x="1081.44726562" xlink:href="#BitstreamVeraSans-Roman-61"/>
     <use x="1142.7265625" xlink:href="#BitstreamVeraSans-Roman-6e"/>
     <use x="1206.10546875" xlink:href="#BitstreamVeraSans-Roman-64"/>
     <use x="1269.58203125" xlink:href="#BitstreamVeraSans-Roman-20"/>
     <use x="1301.36914062" xlink:href="#BitstreamVeraSans-Roman-62"/>
     <use x="1364.84570312" xlink:href="#BitstreamVeraSans-Roman-65"/>
     <use x="1426.36914062" xlink:href="#BitstreamVeraSans-Roman-73"/>
     <use x="1478.46875" xlink:href="#BitstreamVeraSans-Roman-74"/>
     <use x="1517.67773438" xlink:href="#BitstreamVeraSans-Roman-20"/>
     <use x="1549.46484375" xlink:href="#BitstreamVeraSans-Roman-66"/>
     <use x="1584.66992188" xlink:href="#BitstreamVeraSans-Roman-69"/>
     <use x="1612.453125" xlink:href="#BitstreamVeraSans-Roman-74"/>
     <use x="1651.66210938" xlink:href="#BitstreamVeraSans-Roman-6e"/>
     <use x="1715.04101562" xlink:href="#BitstreamVeraSans-Roman-65"/>
     <use x="1776.56445312" xlink:href="#BitstreamVeraSans-Roman-73"/>
     <use x="1828.6640625" xlink:href="#BitstreamVeraSans-Roman-73"/>
    </g>
   </g>
   <g id="legend_1">
    <g id="patch_7">
     <path d="M 79.2 96.993 
L 189.9945 96.993 
L 189.9945 50.4 
L 79.2 50.4 
z
" style="fill:#ffffff;stroke:#000000;stroke-linejoin:miter;"/>
    </g>
    <g id="line2d_48">
     <path d="M 89.28 62.06175 
L 109.44 62.06175 
" style="fill:none;stroke:#0000ff;stroke-linecap:square;"/>
    </g>
    <g id="line2d_49"/>
    <g id="text_19">
     <!-- average -->
     <g transform="translate(125.28 67.10175)scale(0.144 -0.144)">
      <use xlink:href="#BitstreamVeraSans-Roman-61"/>
      <use x="61.279296875" xlink:href="#BitstreamVeraSans-Roman-76"/>
      <use x="120.458984375" xlink:href="#BitstreamVeraSans-Roman-65"/>
      <use x="181.982421875" xlink:href="#BitstreamVeraSans-Roman-72"/>
      <use x="223.095703125" xlink:href="#BitstreamVeraSans-Roman-61"/>
      <use x="284.375" xlink:href="#BitstreamVeraSans-Roman-67"/>
      <use x="347.8515625" xlink:href="#BitstreamVeraSans-Roman-65"/>
     </g>
    </g>
    <g id="line2d_50">
     <path d="M 89.28 83.19825 
L 109.44 83.19825 
" style="fill:none;stroke:#ff0000;stroke-linecap:square;"/>
    </g>
    <g id="line2d_51"/>
    <g id="text_20">
     <!-- best -->
     <g transform="translate(125.28 88.23825)scale(0.144 -0.144)">
      <use xlink:href="#BitstreamVeraSans-Roman-62"/>
      <use x="63.4765625" xlink:href="#BitstreamVeraSans-Roman-65"/>
      <use x="125.0" xlink:href="#BitstreamVeraSans-Roman-73"/>
      <use x="177.099609375" xlink:href="#BitstreamVeraSans-Roman-74"/>
     </g>
    </g>
   </g>
  </g>
 </g>
 <defs>
  <clipPath id="pa149647ef1">
   <rect height="345.6" width="446.4" x="72.0" y="43.2"/>
  </clipPath>
 </defs>
</svg>
