<?xml version="1.0" encoding="utf-8" standalone="no"?>
<!DOCTYPE svg PUBLIC "-//W3C//DTD SVG 1.1//EN"
  "http://www.w3.org/Graphics/SVG/1.1/DTD/svg11.dtd">
<!-- Created with matplotlib (http://matplotlib.org/) -->
<svg height="432pt" version="1.1" viewBox="0 0 576 432" width="576pt" xmlns="http://www.w3.org/2000/svg" xmlns:xlink="http://www.w3.org/1999/xlink">
 <defs>
  <style type="text/css">
*{stroke-linecap:butt;stroke-linejoin:round;stroke-miterlimit:100000;}
  </style>
 </defs>
 <g id="figure_1">
  <g id="patch_1">
   <path d="M 0 432 
L 576 432 
L 576 0 
L 0 0 
z
" style="fill:#ffffff;"/>
  </g>
  <g id="axes_1">
   <g id="patch_2">
    <path d="M 72 388.8 
L 518.4 388.8 
L 518.4 43.2 
L 72 43.2 
z
" style="fill:#ffffff;"/>
   </g>
   <g id="PolyCollection_1">
    <defs>
     <path d="M 72 -367.2 
L 72 -43.2 
L 72.8928 -43.2 
L 73.7856 -43.2 
L 74.6784 -43.2 
L 75.5712 -43.2 
L 76.464 -43.2 
L 77.3568 -43.2 
L 78.2496 -43.2 
L 79.1424 -43.2 
L 80.0352 -43.2 
L 80.928 -43.2 
L 81.8208 -43.2 
L 82.7136 -43.2 
L 83.6064 -43.2 
L 84.4992 -43.2 
L 85.392 -43.2 
L 86.2848 -43.2 
L 87.1776 -43.2 
L 88.0704 -43.2 
L 88.9632 -43.2 
L 89.856 -43.2 
L 90.7488 -43.2 
L 91.6416 -43.2 
L 92.5344 -43.2 
L 93.4272 -43.2 
L 94.32 -43.2 
L 95.2128 -43.2 
L 96.1056 -43.2 
L 96.9984 -43.2 
L 97.8912 -43.2 
L 98.784 -43.2 
L 99.6768 -43.2 
L 100.5696 -43.2 
L 101.4624 -43.2 
L 102.3552 -43.2 
L 103.248 -43.2 
L 104.1408 -43.2 
L 105.0336 -43.2 
L 105.9264 -43.2 
L 106.8192 -43.2 
L 107.712 -43.2 
L 108.6048 -43.2 
L 109.4976 -43.2 
L 110.3904 -43.2 
L 111.2832 -43.2 
L 112.176 -43.2 
L 113.0688 -43.2 
L 113.9616 -43.2 
L 114.8544 -43.2 
L 115.7472 -43.2 
L 116.64 -43.2 
L 117.5328 -43.2 
L 118.4256 -43.2 
L 119.3184 -43.2 
L 120.2112 -43.2 
L 121.104 -43.2 
L 121.9968 -43.2 
L 122.8896 -43.2 
L 123.7824 -43.2 
L 124.6752 -43.2 
L 125.568 -43.2 
L 126.4608 -43.2 
L 127.3536 -43.2 
L 128.2464 -43.2 
L 129.1392 -43.2 
L 130.032 -43.2 
L 130.9248 -43.2 
L 131.8176 -43.2 
L 132.7104 -43.2 
L 133.6032 -43.2 
L 134.496 -43.2 
L 135.3888 -43.2 
L 136.2816 -43.2 
L 137.1744 -43.2 
L 138.0672 -43.2 
L 138.96 -43.2 
L 139.8528 -43.2 
L 140.7456 -43.2 
L 141.6384 -43.2 
L 142.5312 -43.2 
L 143.424 -43.2 
L 144.3168 -43.2 
L 145.2096 -43.2 
L 146.1024 -43.2 
L 146.9952 -43.2 
L 147.888 -43.2 
L 148.7808 -43.2 
L 149.6736 -43.2 
L 150.5664 -43.2 
L 151.4592 -43.2 
L 152.352 -43.2 
L 153.2448 -43.2 
L 154.1376 -43.2 
L 155.0304 -43.2 
L 155.9232 -43.2 
L 156.816 -43.2 
L 157.7088 -43.2 
L 158.6016 -43.2 
L 159.4944 -43.2 
L 160.3872 -43.2 
L 161.28 -43.2 
L 162.1728 -43.2 
L 163.0656 -43.2 
L 163.9584 -43.2 
L 164.8512 -43.2 
L 165.744 -43.2 
L 166.6368 -43.2 
L 167.5296 -43.2 
L 168.4224 -43.2 
L 169.3152 -43.2 
L 170.208 -43.2 
L 171.1008 -43.2 
L 171.9936 -43.2 
L 172.8864 -43.2 
L 173.7792 -43.2 
L 174.672 -43.2 
L 175.5648 -43.2 
L 176.4576 -43.2 
L 177.3504 -43.2 
L 178.2432 -43.2 
L 179.136 -43.2 
L 180.0288 -43.2 
L 180.9216 -43.2 
L 181.8144 -43.2 
L 182.7072 -43.2 
L 183.6 -43.2 
L 184.4928 -43.2 
L 185.3856 -43.2 
L 186.2784 -43.2 
L 187.1712 -43.2 
L 188.064 -43.2 
L 188.9568 -43.2 
L 189.8496 -43.2 
L 190.7424 -43.2 
L 191.6352 -43.2 
L 192.528 -43.2 
L 193.4208 -43.2 
L 194.3136 -43.2 
L 195.2064 -43.2 
L 196.0992 -43.2 
L 196.992 -43.2 
L 197.8848 -43.2 
L 198.7776 -43.2 
L 199.6704 -43.2 
L 200.5632 -43.2 
L 201.456 -43.2 
L 202.3488 -43.2 
L 203.2416 -43.2 
L 204.1344 -43.2 
L 205.0272 -43.2 
L 205.92 -43.2 
L 206.8128 -43.2 
L 207.7056 -43.2 
L 208.5984 -43.2 
L 209.4912 -43.2 
L 210.384 -43.2 
L 211.2768 -43.2 
L 212.1696 -43.2 
L 213.0624 -43.2 
L 213.9552 -43.2 
L 214.848 -43.2 
L 215.7408 -43.2 
L 216.6336 -43.2 
L 217.5264 -43.2 
L 218.4192 -43.2 
L 219.312 -43.2 
L 220.2048 -43.2 
L 221.0976 -43.2 
L 221.9904 -43.2 
L 222.8832 -43.2 
L 223.776 -43.2 
L 224.6688 -43.2 
L 225.5616 -43.2 
L 226.4544 -43.2 
L 227.3472 -43.2 
L 228.24 -43.2 
L 229.1328 -43.2 
L 230.0256 -43.2 
L 230.9184 -43.2 
L 231.8112 -43.2 
L 232.704 -43.2 
L 233.5968 -43.2 
L 234.4896 -43.2 
L 235.3824 -43.2 
L 236.2752 -43.2 
L 237.168 -43.2 
L 238.0608 -43.2 
L 238.9536 -43.2 
L 239.8464 -43.2 
L 240.7392 -43.2 
L 241.632 -43.2 
L 242.5248 -43.2 
L 243.4176 -43.2 
L 244.3104 -43.2 
L 245.2032 -43.2 
L 246.096 -43.2 
L 246.9888 -43.2 
L 247.8816 -43.2 
L 248.7744 -43.2 
L 249.6672 -43.2 
L 250.56 -43.2 
L 251.4528 -43.2 
L 252.3456 -43.2 
L 253.2384 -43.2 
L 254.1312 -43.2 
L 255.024 -43.2 
L 255.9168 -43.2 
L 256.8096 -43.2 
L 257.7024 -43.2 
L 258.5952 -43.2 
L 259.488 -43.2 
L 260.3808 -43.2 
L 261.2736 -43.2 
L 262.1664 -43.2 
L 263.0592 -43.2 
L 263.952 -43.2 
L 264.8448 -43.2 
L 265.7376 -43.2 
L 266.6304 -43.2 
L 267.5232 -43.2 
L 268.416 -43.2 
L 269.3088 -43.2 
L 270.2016 -43.2 
L 271.0944 -43.2 
L 271.9872 -43.2 
L 272.88 -43.2 
L 273.7728 -43.2 
L 274.6656 -43.2 
L 275.5584 -43.2 
L 276.4512 -43.2 
L 277.344 -43.2 
L 278.2368 -43.2 
L 279.1296 -43.2 
L 280.0224 -43.2 
L 280.9152 -43.2 
L 281.808 -43.2 
L 282.7008 -43.2 
L 283.5936 -43.2 
L 284.4864 -43.2 
L 285.3792 -43.2 
L 286.272 -43.2 
L 287.1648 -43.2 
L 288.0576 -43.2 
L 288.9504 -43.2 
L 289.8432 -43.2 
L 290.736 -43.2 
L 291.6288 -43.2 
L 292.5216 -43.2 
L 293.4144 -43.2 
L 294.3072 -43.2 
L 295.2 -43.2 
L 296.0928 -43.2 
L 296.9856 -43.2 
L 297.8784 -43.2 
L 298.7712 -43.2 
L 299.664 -43.2 
L 300.5568 -43.2 
L 301.4496 -43.2 
L 302.3424 -43.2 
L 303.2352 -43.2 
L 304.128 -43.2 
L 305.0208 -43.2 
L 305.9136 -43.2 
L 306.8064 -43.2 
L 307.6992 -43.2 
L 308.592 -43.2 
L 309.4848 -43.2 
L 310.3776 -43.2 
L 311.2704 -43.2 
L 312.1632 -43.2 
L 313.056 -43.2 
L 313.9488 -43.2 
L 314.8416 -43.2 
L 315.7344 -43.2 
L 316.6272 -43.2 
L 317.52 -43.2 
L 318.4128 -43.2 
L 319.3056 -43.2 
L 320.1984 -43.2 
L 321.0912 -43.2 
L 321.984 -43.2 
L 322.8768 -43.2 
L 323.7696 -43.2 
L 324.6624 -43.2 
L 325.5552 -43.2 
L 326.448 -43.2 
L 327.3408 -43.2 
L 328.2336 -43.2 
L 329.1264 -43.2 
L 330.0192 -43.2 
L 330.912 -43.2 
L 331.8048 -43.2 
L 332.6976 -43.2 
L 333.5904 -43.2 
L 334.4832 -43.2 
L 335.376 -43.2 
L 336.2688 -43.2 
L 337.1616 -43.2 
L 338.0544 -43.2 
L 338.9472 -43.2 
L 339.84 -43.2 
L 340.7328 -43.2 
L 341.6256 -43.2 
L 342.5184 -43.2 
L 343.4112 -43.2 
L 344.304 -43.2 
L 345.1968 -43.2 
L 346.0896 -43.2 
L 346.9824 -43.2 
L 347.8752 -43.2 
L 348.768 -43.2 
L 349.6608 -43.2 
L 350.5536 -43.2 
L 351.4464 -43.2 
L 352.3392 -43.2 
L 353.232 -43.2 
L 354.1248 -43.2 
L 355.0176 -43.2 
L 355.9104 -43.2 
L 356.8032 -43.2 
L 357.696 -43.2 
L 358.5888 -43.2 
L 359.4816 -43.2 
L 360.3744 -43.2 
L 361.2672 -43.2 
L 362.16 -43.2 
L 363.0528 -43.2 
L 363.9456 -43.2 
L 364.8384 -43.2 
L 365.7312 -43.2 
L 366.624 -43.2 
L 367.5168 -43.2 
L 368.4096 -43.2 
L 369.3024 -43.2 
L 370.1952 -43.2 
L 371.088 -43.2 
L 371.9808 -43.2 
L 372.8736 -43.2 
L 373.7664 -43.2 
L 374.6592 -43.2 
L 375.552 -43.2 
L 376.4448 -43.2 
L 377.3376 -43.2 
L 378.2304 -43.2 
L 379.1232 -43.2 
L 380.016 -43.2 
L 380.9088 -43.2 
L 381.8016 -43.2 
L 382.6944 -43.2 
L 383.5872 -43.2 
L 384.48 -43.2 
L 385.3728 -43.2 
L 386.2656 -43.2 
L 387.1584 -43.2 
L 388.0512 -43.2 
L 388.944 -43.2 
L 389.8368 -43.2 
L 390.7296 -43.2 
L 391.6224 -43.2 
L 392.5152 -43.2 
L 393.408 -43.2 
L 394.3008 -43.2 
L 395.1936 -43.2 
L 396.0864 -43.2 
L 396.9792 -43.2 
L 397.872 -43.2 
L 398.7648 -43.2 
L 399.6576 -43.2 
L 400.5504 -43.2 
L 401.4432 -43.2 
L 402.336 -43.2 
L 403.2288 -43.2 
L 404.1216 -43.2 
L 405.0144 -43.2 
L 405.9072 -43.2 
L 406.8 -43.2 
L 407.6928 -43.2 
L 408.5856 -43.2 
L 409.4784 -43.2 
L 410.3712 -43.2 
L 411.264 -43.2 
L 412.1568 -43.2 
L 413.0496 -43.2 
L 413.9424 -43.2 
L 414.8352 -43.2 
L 415.728 -43.2 
L 416.6208 -43.2 
L 417.5136 -43.2 
L 418.4064 -43.2 
L 419.2992 -43.2 
L 420.192 -43.2 
L 421.0848 -43.2 
L 421.9776 -43.2 
L 422.8704 -43.2 
L 423.7632 -43.2 
L 424.656 -43.2 
L 425.5488 -43.2 
L 426.4416 -43.2 
L 427.3344 -43.2 
L 428.2272 -43.2 
L 429.12 -43.2 
L 430.0128 -43.2 
L 430.9056 -43.2 
L 431.7984 -43.2 
L 432.6912 -43.2 
L 433.584 -43.2 
L 434.4768 -43.2 
L 435.3696 -43.2 
L 436.2624 -43.2 
L 437.1552 -43.2 
L 438.048 -43.2 
L 438.9408 -43.2 
L 439.8336 -43.2 
L 440.7264 -43.2 
L 441.6192 -43.2 
L 442.512 -43.2 
L 443.4048 -43.2 
L 444.2976 -43.2 
L 445.1904 -43.2 
L 446.0832 -43.2 
L 446.976 -43.2 
L 447.8688 -43.2 
L 448.7616 -43.2 
L 449.6544 -43.2 
L 450.5472 -43.2 
L 451.44 -43.2 
L 452.3328 -43.2 
L 453.2256 -43.2 
L 454.1184 -43.2 
L 455.0112 -43.2 
L 455.904 -43.2 
L 456.7968 -43.2 
L 457.6896 -43.2 
L 458.5824 -43.2 
L 459.4752 -43.2 
L 460.368 -43.2 
L 461.2608 -43.2 
L 462.1536 -43.2 
L 463.0464 -43.2 
L 463.9392 -43.2 
L 464.832 -43.2 
L 465.7248 -43.2 
L 466.6176 -43.2 
L 467.5104 -43.2 
L 468.4032 -43.2 
L 469.296 -43.2 
L 470.1888 -43.2 
L 471.0816 -43.2 
L 471.9744 -43.2 
L 472.8672 -43.2 
L 473.76 -43.2 
L 474.6528 -43.2 
L 475.5456 -43.2 
L 476.4384 -43.2 
L 477.3312 -43.2 
L 478.224 -43.2 
L 479.1168 -43.2 
L 480.0096 -43.2 
L 480.9024 -43.2 
L 481.7952 -43.2 
L 482.688 -43.2 
L 483.5808 -43.2 
L 484.4736 -43.2 
L 485.3664 -43.2 
L 486.2592 -43.2 
L 487.152 -43.2 
L 488.0448 -43.2 
L 488.9376 -43.2 
L 489.8304 -43.2 
L 490.7232 -43.2 
L 491.616 -43.2 
L 492.5088 -43.2 
L 493.4016 -43.2 
L 494.2944 -43.2 
L 495.1872 -43.2 
L 496.08 -43.2 
L 496.9728 -43.2 
L 497.8656 -43.2 
L 498.7584 -43.2 
L 499.6512 -43.2 
L 500.544 -43.2 
L 501.4368 -43.2 
L 502.3296 -43.2 
L 503.2224 -43.2 
L 504.1152 -43.2 
L 505.008 -43.2 
L 505.9008 -43.2 
L 506.7936 -43.2 
L 507.6864 -43.2 
L 508.5792 -43.2 
L 509.472 -43.2 
L 510.3648 -43.2 
L 511.2576 -43.2 
L 512.1504 -43.2 
L 513.0432 -43.2 
L 513.936 -43.2 
L 514.8288 -43.2 
L 515.7216 -43.2 
L 516.6144 -43.2 
L 517.5072 -43.2 
L 517.5072 -367.2 
L 517.5072 -367.2 
L 516.6144 -367.2 
L 515.7216 -367.2 
L 514.8288 -367.2 
L 513.936 -367.2 
L 513.0432 -367.2 
L 512.1504 -367.2 
L 511.2576 -367.2 
L 510.3648 -367.2 
L 509.472 -367.2 
L 508.5792 -367.2 
L 507.6864 -367.2 
L 506.7936 -367.2 
L 505.9008 -367.2 
L 505.008 -367.2 
L 504.1152 -367.2 
L 503.2224 -367.2 
L 502.3296 -367.2 
L 501.4368 -367.2 
L 500.544 -367.2 
L 499.6512 -367.2 
L 498.7584 -367.2 
L 497.8656 -367.2 
L 496.9728 -367.2 
L 496.08 -367.2 
L 495.1872 -367.2 
L 494.2944 -367.2 
L 493.4016 -367.2 
L 492.5088 -367.2 
L 491.616 -367.2 
L 490.7232 -367.2 
L 489.8304 -367.2 
L 488.9376 -367.2 
L 488.0448 -367.2 
L 487.152 -367.2 
L 486.2592 -367.2 
L 485.3664 -367.2 
L 484.4736 -367.2 
L 483.5808 -367.2 
L 482.688 -367.2 
L 481.7952 -367.2 
L 480.9024 -367.2 
L 480.0096 -367.2 
L 479.1168 -367.2 
L 478.224 -367.2 
L 477.3312 -367.2 
L 476.4384 -367.2 
L 475.5456 -367.2 
L 474.6528 -367.2 
L 473.76 -367.2 
L 472.8672 -367.2 
L 471.9744 -367.2 
L 471.0816 -367.2 
L 470.1888 -367.2 
L 469.296 -367.2 
L 468.4032 -367.2 
L 467.5104 -367.2 
L 466.6176 -367.2 
L 465.7248 -367.2 
L 464.832 -367.2 
L 463.9392 -367.2 
L 463.0464 -367.2 
L 462.1536 -367.2 
L 461.2608 -367.2 
L 460.368 -367.2 
L 459.4752 -367.2 
L 458.5824 -367.2 
L 457.6896 -367.2 
L 456.7968 -367.2 
L 455.904 -367.2 
L 455.0112 -367.2 
L 454.1184 -367.2 
L 453.2256 -367.2 
L 452.3328 -367.2 
L 451.44 -367.2 
L 450.5472 -367.2 
L 449.6544 -367.2 
L 448.7616 -367.2 
L 447.8688 -367.2 
L 446.976 -367.2 
L 446.0832 -367.2 
L 445.1904 -367.2 
L 444.2976 -367.2 
L 443.4048 -367.2 
L 442.512 -367.2 
L 441.6192 -367.2 
L 440.7264 -367.2 
L 439.8336 -367.2 
L 438.9408 -367.2 
L 438.048 -367.2 
L 437.1552 -367.2 
L 436.2624 -367.2 
L 435.3696 -367.2 
L 434.4768 -367.2 
L 433.584 -367.2 
L 432.6912 -367.2 
L 431.7984 -367.2 
L 430.9056 -367.2 
L 430.0128 -367.2 
L 429.12 -367.2 
L 428.2272 -367.2 
L 427.3344 -367.2 
L 426.4416 -367.2 
L 425.5488 -367.2 
L 424.656 -367.2 
L 423.7632 -367.2 
L 422.8704 -367.2 
L 421.9776 -367.2 
L 421.0848 -367.2 
L 420.192 -367.2 
L 419.2992 -367.2 
L 418.4064 -367.2 
L 417.5136 -367.2 
L 416.6208 -367.2 
L 415.728 -367.2 
L 414.8352 -367.2 
L 413.9424 -367.2 
L 413.0496 -367.2 
L 412.1568 -367.2 
L 411.264 -367.2 
L 410.3712 -367.2 
L 409.4784 -367.2 
L 408.5856 -367.2 
L 407.6928 -367.2 
L 406.8 -367.2 
L 405.9072 -367.2 
L 405.0144 -367.2 
L 404.1216 -367.2 
L 403.2288 -367.2 
L 402.336 -367.2 
L 401.4432 -367.2 
L 400.5504 -367.2 
L 399.6576 -367.2 
L 398.7648 -367.2 
L 397.872 -367.2 
L 396.9792 -367.2 
L 396.0864 -367.2 
L 395.1936 -367.2 
L 394.3008 -367.2 
L 393.408 -367.2 
L 392.5152 -367.2 
L 391.6224 -367.2 
L 390.7296 -367.2 
L 389.8368 -367.2 
L 388.944 -367.2 
L 388.0512 -367.2 
L 387.1584 -367.2 
L 386.2656 -367.2 
L 385.3728 -367.2 
L 384.48 -367.2 
L 383.5872 -367.2 
L 382.6944 -367.2 
L 381.8016 -367.2 
L 380.9088 -367.2 
L 380.016 -367.2 
L 379.1232 -367.2 
L 378.2304 -367.2 
L 377.3376 -367.2 
L 376.4448 -367.2 
L 375.552 -367.2 
L 374.6592 -367.2 
L 373.7664 -367.2 
L 372.8736 -367.2 
L 371.9808 -367.2 
L 371.088 -367.2 
L 370.1952 -367.2 
L 369.3024 -367.2 
L 368.4096 -367.2 
L 367.5168 -367.2 
L 366.624 -367.2 
L 365.7312 -367.2 
L 364.8384 -367.2 
L 363.9456 -367.2 
L 363.0528 -367.2 
L 362.16 -367.2 
L 361.2672 -367.2 
L 360.3744 -367.2 
L 359.4816 -367.2 
L 358.5888 -367.2 
L 357.696 -367.2 
L 356.8032 -367.2 
L 355.9104 -367.2 
L 355.0176 -367.2 
L 354.1248 -367.2 
L 353.232 -367.2 
L 352.3392 -367.2 
L 351.4464 -367.2 
L 350.5536 -367.2 
L 349.6608 -367.2 
L 348.768 -367.2 
L 347.8752 -367.2 
L 346.9824 -367.2 
L 346.0896 -367.2 
L 345.1968 -367.2 
L 344.304 -367.2 
L 343.4112 -367.2 
L 342.5184 -367.2 
L 341.6256 -367.2 
L 340.7328 -367.2 
L 339.84 -367.2 
L 338.9472 -367.2 
L 338.0544 -367.2 
L 337.1616 -367.2 
L 336.2688 -367.2 
L 335.376 -367.2 
L 334.4832 -367.2 
L 333.5904 -367.2 
L 332.6976 -367.2 
L 331.8048 -367.2 
L 330.912 -367.2 
L 330.0192 -367.2 
L 329.1264 -367.2 
L 328.2336 -367.2 
L 327.3408 -367.2 
L 326.448 -367.2 
L 325.5552 -367.2 
L 324.6624 -367.2 
L 323.7696 -367.2 
L 322.8768 -367.2 
L 321.984 -367.2 
L 321.0912 -367.2 
L 320.1984 -367.2 
L 319.3056 -367.2 
L 318.4128 -367.2 
L 317.52 -367.2 
L 316.6272 -367.2 
L 315.7344 -367.2 
L 314.8416 -367.2 
L 313.9488 -367.2 
L 313.056 -367.2 
L 312.1632 -367.2 
L 311.2704 -367.2 
L 310.3776 -367.2 
L 309.4848 -367.2 
L 308.592 -367.2 
L 307.6992 -367.2 
L 306.8064 -367.2 
L 305.9136 -367.2 
L 305.0208 -367.2 
L 304.128 -367.2 
L 303.2352 -367.2 
L 302.3424 -367.2 
L 301.4496 -367.2 
L 300.5568 -367.2 
L 299.664 -367.2 
L 298.7712 -367.2 
L 297.8784 -367.2 
L 296.9856 -367.2 
L 296.0928 -367.2 
L 295.2 -367.2 
L 294.3072 -367.2 
L 293.4144 -367.2 
L 292.5216 -367.2 
L 291.6288 -367.2 
L 290.736 -367.2 
L 289.8432 -367.2 
L 288.9504 -367.2 
L 288.0576 -367.2 
L 287.1648 -367.2 
L 286.272 -367.2 
L 285.3792 -367.2 
L 284.4864 -367.2 
L 283.5936 -367.2 
L 282.7008 -367.2 
L 281.808 -367.2 
L 280.9152 -367.2 
L 280.0224 -367.2 
L 279.1296 -367.2 
L 278.2368 -367.2 
L 277.344 -367.2 
L 276.4512 -367.2 
L 275.5584 -367.2 
L 274.6656 -367.2 
L 273.7728 -367.2 
L 272.88 -367.2 
L 271.9872 -367.2 
L 271.0944 -367.2 
L 270.2016 -367.2 
L 269.3088 -367.2 
L 268.416 -367.2 
L 267.5232 -367.2 
L 266.6304 -367.2 
L 265.7376 -367.2 
L 264.8448 -367.2 
L 263.952 -367.2 
L 263.0592 -367.2 
L 262.1664 -367.2 
L 261.2736 -367.2 
L 260.3808 -367.2 
L 259.488 -367.2 
L 258.5952 -367.2 
L 257.7024 -367.2 
L 256.8096 -367.2 
L 255.9168 -367.2 
L 255.024 -367.2 
L 254.1312 -367.2 
L 253.2384 -367.2 
L 252.3456 -367.2 
L 251.4528 -367.2 
L 250.56 -367.2 
L 249.6672 -367.2 
L 248.7744 -367.2 
L 247.8816 -367.2 
L 246.9888 -367.2 
L 246.096 -367.2 
L 245.2032 -367.2 
L 244.3104 -367.2 
L 243.4176 -367.2 
L 242.5248 -367.2 
L 241.632 -367.2 
L 240.7392 -367.2 
L 239.8464 -367.2 
L 238.9536 -367.2 
L 238.0608 -367.2 
L 237.168 -367.2 
L 236.2752 -367.2 
L 235.3824 -367.2 
L 234.4896 -367.2 
L 233.5968 -367.2 
L 232.704 -367.2 
L 231.8112 -367.2 
L 230.9184 -367.2 
L 230.0256 -367.2 
L 229.1328 -367.2 
L 228.24 -367.2 
L 227.3472 -367.2 
L 226.4544 -367.2 
L 225.5616 -367.2 
L 224.6688 -367.2 
L 223.776 -367.2 
L 222.8832 -367.2 
L 221.9904 -367.2 
L 221.0976 -367.2 
L 220.2048 -367.2 
L 219.312 -367.2 
L 218.4192 -367.2 
L 217.5264 -367.2 
L 216.6336 -367.2 
L 215.7408 -367.2 
L 214.848 -367.2 
L 213.9552 -367.2 
L 213.0624 -367.2 
L 212.1696 -367.2 
L 211.2768 -367.2 
L 210.384 -367.2 
L 209.4912 -367.2 
L 208.5984 -367.2 
L 207.7056 -367.2 
L 206.8128 -367.2 
L 205.92 -367.2 
L 205.0272 -367.2 
L 204.1344 -367.2 
L 203.2416 -367.2 
L 202.3488 -367.2 
L 201.456 -367.2 
L 200.5632 -367.2 
L 199.6704 -367.2 
L 198.7776 -367.2 
L 197.8848 -367.2 
L 196.992 -367.2 
L 196.0992 -367.2 
L 195.2064 -367.2 
L 194.3136 -367.2 
L 193.4208 -367.2 
L 192.528 -367.2 
L 191.6352 -367.2 
L 190.7424 -367.2 
L 189.8496 -367.2 
L 188.9568 -367.2 
L 188.064 -367.2 
L 187.1712 -367.2 
L 186.2784 -367.2 
L 185.3856 -367.2 
L 184.4928 -367.2 
L 183.6 -367.2 
L 182.7072 -367.2 
L 181.8144 -367.2 
L 180.9216 -367.2 
L 180.0288 -367.2 
L 179.136 -367.2 
L 178.2432 -367.2 
L 177.3504 -367.2 
L 176.4576 -367.2 
L 175.5648 -367.2 
L 174.672 -367.2 
L 173.7792 -367.2 
L 172.8864 -367.2 
L 171.9936 -367.2 
L 171.1008 -367.2 
L 170.208 -367.2 
L 169.3152 -367.2 
L 168.4224 -367.2 
L 167.5296 -367.2 
L 166.6368 -367.2 
L 165.744 -367.2 
L 164.8512 -367.2 
L 163.9584 -367.2 
L 163.0656 -367.2 
L 162.1728 -367.2 
L 161.28 -367.2 
L 160.3872 -367.2 
L 159.4944 -367.2 
L 158.6016 -367.2 
L 157.7088 -367.2 
L 156.816 -367.2 
L 155.9232 -367.2 
L 155.0304 -367.2 
L 154.1376 -367.2 
L 153.2448 -367.2 
L 152.352 -367.2 
L 151.4592 -367.2 
L 150.5664 -367.2 
L 149.6736 -367.2 
L 148.7808 -367.2 
L 147.888 -367.2 
L 146.9952 -367.2 
L 146.1024 -367.2 
L 145.2096 -367.2 
L 144.3168 -367.2 
L 143.424 -367.2 
L 142.5312 -367.2 
L 141.6384 -367.2 
L 140.7456 -367.2 
L 139.8528 -367.2 
L 138.96 -367.2 
L 138.0672 -367.2 
L 137.1744 -367.2 
L 136.2816 -367.2 
L 135.3888 -367.2 
L 134.496 -367.2 
L 133.6032 -367.2 
L 132.7104 -367.2 
L 131.8176 -367.2 
L 130.9248 -367.2 
L 130.032 -367.2 
L 129.1392 -367.2 
L 128.2464 -367.2 
L 127.3536 -367.2 
L 126.4608 -367.2 
L 125.568 -367.2 
L 124.6752 -367.2 
L 123.7824 -367.2 
L 122.8896 -367.2 
L 121.9968 -367.2 
L 121.104 -367.2 
L 120.2112 -367.2 
L 119.3184 -367.2 
L 118.4256 -367.2 
L 117.5328 -367.2 
L 116.64 -367.2 
L 115.7472 -367.2 
L 114.8544 -367.2 
L 113.9616 -367.2 
L 113.0688 -367.2 
L 112.176 -367.2 
L 111.2832 -367.2 
L 110.3904 -367.2 
L 109.4976 -367.2 
L 108.6048 -367.2 
L 107.712 -367.2 
L 106.8192 -367.2 
L 105.9264 -367.2 
L 105.0336 -367.2 
L 104.1408 -367.2 
L 103.248 -367.2 
L 102.3552 -367.2 
L 101.4624 -367.2 
L 100.5696 -367.2 
L 99.6768 -367.2 
L 98.784 -367.2 
L 97.8912 -367.2 
L 96.9984 -367.2 
L 96.1056 -367.2 
L 95.2128 -367.2 
L 94.32 -367.2 
L 93.4272 -367.2 
L 92.5344 -367.2 
L 91.6416 -367.2 
L 90.7488 -367.2 
L 89.856 -367.2 
L 88.9632 -367.2 
L 88.0704 -367.2 
L 87.1776 -367.2 
L 86.2848 -367.2 
L 85.392 -367.2 
L 84.4992 -367.2 
L 83.6064 -367.2 
L 82.7136 -367.2 
L 81.8208 -367.2 
L 80.928 -367.2 
L 80.0352 -367.2 
L 79.1424 -367.2 
L 78.2496 -367.2 
L 77.3568 -367.2 
L 76.464 -367.2 
L 75.5712 -367.2 
L 74.6784 -367.2 
L 73.7856 -367.2 
L 72.8928 -367.2 
L 72 -367.2 
z
" id="m41233aaafb" style="stroke:#000000;"/>
    </defs>
    <g clip-path="url(#p8f5aecd8b8)">
     <use style="fill:#0000ff;stroke:#000000;" x="0.0" xlink:href="#m41233aaafb" y="432.0"/>
    </g>
   </g>
   <g id="patch_3">
    <path d="M 72 43.2 
L 518.4 43.2 
" style="fill:none;stroke:#000000;stroke-linecap:square;stroke-linejoin:miter;"/>
   </g>
   <g id="patch_4">
    <path d="M 518.4 388.8 
L 518.4 43.2 
" style="fill:none;stroke:#000000;stroke-linecap:square;stroke-linejoin:miter;"/>
   </g>
   <g id="patch_5">
    <path d="M 72 388.8 
L 518.4 388.8 
" style="fill:none;stroke:#000000;stroke-linecap:square;stroke-linejoin:miter;"/>
   </g>
   <g id="patch_6">
    <path d="M 72 388.8 
L 72 43.2 
" style="fill:none;stroke:#000000;stroke-linecap:square;stroke-linejoin:miter;"/>
   </g>
   <g id="matplotlib.axis_1">
    <g id="xtick_1">
     <g id="line2d_1">
      <defs>
       <path d="M 0 0 
L 0 -4 
" id="m40d305355c" style="stroke:#000000;stroke-width:0.5;"/>
      </defs>
      <g>
       <use style="stroke:#000000;stroke-width:0.5;" x="72.0" xlink:href="#m40d305355c" y="388.8"/>
      </g>
     </g>
     <g id="line2d_2">
      <defs>
       <path d="M 0 0 
L 0 4 
" id="m7832d87df2" style="stroke:#000000;stroke-width:0.5;"/>
      </defs>
      <g>
       <use style="stroke:#000000;stroke-width:0.5;" x="72.0" xlink:href="#m7832d87df2" y="43.2"/>
      </g>
     </g>
     <g id="text_1">
      <!-- 0 -->
      <defs>
       <path d="M 31.78125 66.40625 
Q 24.171875 66.40625 20.328125 58.90625 
Q 16.5 51.421875 16.5 36.375 
Q 16.5 21.390625 20.328125 13.890625 
Q 24.171875 6.390625 31.78125 6.390625 
Q 39.453125 6.390625 43.28125 13.890625 
Q 47.125 21.390625 47.125 36.375 
Q 47.125 51.421875 43.28125 58.90625 
Q 39.453125 66.40625 31.78125 66.40625 
M 31.78125 74.21875 
Q 44.046875 74.21875 50.515625 64.515625 
Q 56.984375 54.828125 56.984375 36.375 
Q 56.984375 17.96875 50.515625 8.265625 
Q 44.046875 -1.421875 31.78125 -1.421875 
Q 19.53125 -1.421875 13.0625 8.265625 
Q 6.59375 17.96875 6.59375 36.375 
Q 6.59375 54.828125 13.0625 64.515625 
Q 19.53125 74.21875 31.78125 74.21875 
" id="BitstreamVeraSans-Roman-30"/>
      </defs>
      <g transform="translate(68.1825 401.918125)scale(0.12 -0.12)">
       <use xlink:href="#BitstreamVeraSans-Roman-30"/>
      </g>
     </g>
    </g>
    <g id="xtick_2">
     <g id="line2d_3">
      <g>
       <use style="stroke:#000000;stroke-width:0.5;" x="161.28" xlink:href="#m40d305355c" y="388.8"/>
      </g>
     </g>
     <g id="line2d_4">
      <g>
       <use style="stroke:#000000;stroke-width:0.5;" x="161.28" xlink:href="#m7832d87df2" y="43.2"/>
      </g>
     </g>
     <g id="text_2">
      <!-- 100 -->
      <defs>
       <path d="M 12.40625 8.296875 
L 28.515625 8.296875 
L 28.515625 63.921875 
L 10.984375 60.40625 
L 10.984375 69.390625 
L 28.421875 72.90625 
L 38.28125 72.90625 
L 38.28125 8.296875 
L 54.390625 8.296875 
L 54.390625 0 
L 12.40625 0 
z
" id="BitstreamVeraSans-Roman-31"/>
      </defs>
      <g transform="translate(149.8275 401.918125)scale(0.12 -0.12)">
       <use xlink:href="#BitstreamVeraSans-Roman-31"/>
       <use x="63.623046875" xlink:href="#BitstreamVeraSans-Roman-30"/>
       <use x="127.24609375" xlink:href="#BitstreamVeraSans-Roman-30"/>
      </g>
     </g>
    </g>
    <g id="xtick_3">
     <g id="line2d_5">
      <g>
       <use style="stroke:#000000;stroke-width:0.5;" x="250.56" xlink:href="#m40d305355c" y="388.8"/>
      </g>
     </g>
     <g id="line2d_6">
      <g>
       <use style="stroke:#000000;stroke-width:0.5;" x="250.56" xlink:href="#m7832d87df2" y="43.2"/>
      </g>
     </g>
     <g id="text_3">
      <!-- 200 -->
      <defs>
       <path d="M 19.1875 8.296875 
L 53.609375 8.296875 
L 53.609375 0 
L 7.328125 0 
L 7.328125 8.296875 
Q 12.9375 14.109375 22.625 23.890625 
Q 32.328125 33.6875 34.8125 36.53125 
Q 39.546875 41.84375 41.421875 45.53125 
Q 43.3125 49.21875 43.3125 52.78125 
Q 43.3125 58.59375 39.234375 62.25 
Q 35.15625 65.921875 28.609375 65.921875 
Q 23.96875 65.921875 18.8125 64.3125 
Q 13.671875 62.703125 7.8125 59.421875 
L 7.8125 69.390625 
Q 13.765625 71.78125 18.9375 73 
Q 24.125 74.21875 28.421875 74.21875 
Q 39.75 74.21875 46.484375 68.546875 
Q 53.21875 62.890625 53.21875 53.421875 
Q 53.21875 48.921875 51.53125 44.890625 
Q 49.859375 40.875 45.40625 35.40625 
Q 44.1875 33.984375 37.640625 27.21875 
Q 31.109375 20.453125 19.1875 8.296875 
" id="BitstreamVeraSans-Roman-32"/>
      </defs>
      <g transform="translate(239.1075 401.918125)scale(0.12 -0.12)">
       <use xlink:href="#BitstreamVeraSans-Roman-32"/>
       <use x="63.623046875" xlink:href="#BitstreamVeraSans-Roman-30"/>
       <use x="127.24609375" xlink:href="#BitstreamVeraSans-Roman-30"/>
      </g>
     </g>
    </g>
    <g id="xtick_4">
     <g id="line2d_7">
      <g>
       <use style="stroke:#000000;stroke-width:0.5;" x="339.84" xlink:href="#m40d305355c" y="388.8"/>
      </g>
     </g>
     <g id="line2d_8">
      <g>
       <use style="stroke:#000000;stroke-width:0.5;" x="339.84" xlink:href="#m7832d87df2" y="43.2"/>
      </g>
     </g>
     <g id="text_4">
      <!-- 300 -->
      <defs>
       <path d="M 40.578125 39.3125 
Q 47.65625 37.796875 51.625 33 
Q 55.609375 28.21875 55.609375 21.1875 
Q 55.609375 10.40625 48.1875 4.484375 
Q 40.765625 -1.421875 27.09375 -1.421875 
Q 22.515625 -1.421875 17.65625 -0.515625 
Q 12.796875 0.390625 7.625 2.203125 
L 7.625 11.71875 
Q 11.71875 9.328125 16.59375 8.109375 
Q 21.484375 6.890625 26.8125 6.890625 
Q 36.078125 6.890625 40.9375 10.546875 
Q 45.796875 14.203125 45.796875 21.1875 
Q 45.796875 27.640625 41.28125 31.265625 
Q 36.765625 34.90625 28.71875 34.90625 
L 20.21875 34.90625 
L 20.21875 43.015625 
L 29.109375 43.015625 
Q 36.375 43.015625 40.234375 45.921875 
Q 44.09375 48.828125 44.09375 54.296875 
Q 44.09375 59.90625 40.109375 62.90625 
Q 36.140625 65.921875 28.71875 65.921875 
Q 24.65625 65.921875 20.015625 65.03125 
Q 15.375 64.15625 9.8125 62.3125 
L 9.8125 71.09375 
Q 15.4375 72.65625 20.34375 73.4375 
Q 25.25 74.21875 29.59375 74.21875 
Q 40.828125 74.21875 47.359375 69.109375 
Q 53.90625 64.015625 53.90625 55.328125 
Q 53.90625 49.265625 50.4375 45.09375 
Q 46.96875 40.921875 40.578125 39.3125 
" id="BitstreamVeraSans-Roman-33"/>
      </defs>
      <g transform="translate(328.3875 401.918125)scale(0.12 -0.12)">
       <use xlink:href="#BitstreamVeraSans-Roman-33"/>
       <use x="63.623046875" xlink:href="#BitstreamVeraSans-Roman-30"/>
       <use x="127.24609375" xlink:href="#BitstreamVeraSans-Roman-30"/>
      </g>
     </g>
    </g>
    <g id="xtick_5">
     <g id="line2d_9">
      <g>
       <use style="stroke:#000000;stroke-width:0.5;" x="429.12" xlink:href="#m40d305355c" y="388.8"/>
      </g>
     </g>
     <g id="line2d_10">
      <g>
       <use style="stroke:#000000;stroke-width:0.5;" x="429.12" xlink:href="#m7832d87df2" y="43.2"/>
      </g>
     </g>
     <g id="text_5">
      <!-- 400 -->
      <defs>
       <path d="M 37.796875 64.3125 
L 12.890625 25.390625 
L 37.796875 25.390625 
z
M 35.203125 72.90625 
L 47.609375 72.90625 
L 47.609375 25.390625 
L 58.015625 25.390625 
L 58.015625 17.1875 
L 47.609375 17.1875 
L 47.609375 0 
L 37.796875 0 
L 37.796875 17.1875 
L 4.890625 17.1875 
L 4.890625 26.703125 
z
" id="BitstreamVeraSans-Roman-34"/>
      </defs>
      <g transform="translate(417.6675 401.918125)scale(0.12 -0.12)">
       <use xlink:href="#BitstreamVeraSans-Roman-34"/>
       <use x="63.623046875" xlink:href="#BitstreamVeraSans-Roman-30"/>
       <use x="127.24609375" xlink:href="#BitstreamVeraSans-Roman-30"/>
      </g>
     </g>
    </g>
    <g id="xtick_6">
     <g id="line2d_11">
      <g>
       <use style="stroke:#000000;stroke-width:0.5;" x="518.4" xlink:href="#m40d305355c" y="388.8"/>
      </g>
     </g>
     <g id="line2d_12">
      <g>
       <use style="stroke:#000000;stroke-width:0.5;" x="518.4" xlink:href="#m7832d87df2" y="43.2"/>
      </g>
     </g>
     <g id="text_6">
      <!-- 500 -->
      <defs>
       <path d="M 10.796875 72.90625 
L 49.515625 72.90625 
L 49.515625 64.59375 
L 19.828125 64.59375 
L 19.828125 46.734375 
Q 21.96875 47.46875 24.109375 47.828125 
Q 26.265625 48.1875 28.421875 48.1875 
Q 40.625 48.1875 47.75 41.5 
Q 54.890625 34.8125 54.890625 23.390625 
Q 54.890625 11.625 47.5625 5.09375 
Q 40.234375 -1.421875 26.90625 -1.421875 
Q 22.3125 -1.421875 17.546875 -0.640625 
Q 12.796875 0.140625 7.71875 1.703125 
L 7.71875 11.625 
Q 12.109375 9.234375 16.796875 8.0625 
Q 21.484375 6.890625 26.703125 6.890625 
Q 35.15625 6.890625 40.078125 11.328125 
Q 45.015625 15.765625 45.015625 23.390625 
Q 45.015625 31 40.078125 35.4375 
Q 35.15625 39.890625 26.703125 39.890625 
Q 22.75 39.890625 18.8125 39.015625 
Q 14.890625 38.140625 10.796875 36.28125 
z
" id="BitstreamVeraSans-Roman-35"/>
      </defs>
      <g transform="translate(506.9475 401.918125)scale(0.12 -0.12)">
       <use xlink:href="#BitstreamVeraSans-Roman-35"/>
       <use x="63.623046875" xlink:href="#BitstreamVeraSans-Roman-30"/>
       <use x="127.24609375" xlink:href="#BitstreamVeraSans-Roman-30"/>
      </g>
     </g>
    </g>
    <g id="text_7">
     <!-- Generations -->
     <defs>
      <path d="M 54.890625 33.015625 
L 54.890625 0 
L 45.90625 0 
L 45.90625 32.71875 
Q 45.90625 40.484375 42.875 44.328125 
Q 39.84375 48.1875 33.796875 48.1875 
Q 26.515625 48.1875 22.3125 43.546875 
Q 18.109375 38.921875 18.109375 30.90625 
L 18.109375 0 
L 9.078125 0 
L 9.078125 54.6875 
L 18.109375 54.6875 
L 18.109375 46.1875 
Q 21.34375 51.125 25.703125 53.5625 
Q 30.078125 56 35.796875 56 
Q 45.21875 56 50.046875 50.171875 
Q 54.890625 44.34375 54.890625 33.015625 
" id="BitstreamVeraSans-Roman-6e"/>
      <path d="M 41.109375 46.296875 
Q 39.59375 47.171875 37.8125 47.578125 
Q 36.03125 48 33.890625 48 
Q 26.265625 48 22.1875 43.046875 
Q 18.109375 38.09375 18.109375 28.8125 
L 18.109375 0 
L 9.078125 0 
L 9.078125 54.6875 
L 18.109375 54.6875 
L 18.109375 46.1875 
Q 20.953125 51.171875 25.484375 53.578125 
Q 30.03125 56 36.53125 56 
Q 37.453125 56 38.578125 55.875 
Q 39.703125 55.765625 41.0625 55.515625 
z
" id="BitstreamVeraSans-Roman-72"/>
      <path d="M 30.609375 48.390625 
Q 23.390625 48.390625 19.1875 42.75 
Q 14.984375 37.109375 14.984375 27.296875 
Q 14.984375 17.484375 19.15625 11.84375 
Q 23.34375 6.203125 30.609375 6.203125 
Q 37.796875 6.203125 41.984375 11.859375 
Q 46.1875 17.53125 46.1875 27.296875 
Q 46.1875 37.015625 41.984375 42.703125 
Q 37.796875 48.390625 30.609375 48.390625 
M 30.609375 56 
Q 42.328125 56 49.015625 48.375 
Q 55.71875 40.765625 55.71875 27.296875 
Q 55.71875 13.875 49.015625 6.21875 
Q 42.328125 -1.421875 30.609375 -1.421875 
Q 18.84375 -1.421875 12.171875 6.21875 
Q 5.515625 13.875 5.515625 27.296875 
Q 5.515625 40.765625 12.171875 48.375 
Q 18.84375 56 30.609375 56 
" id="BitstreamVeraSans-Roman-6f"/>
      <path d="M 59.515625 10.40625 
L 59.515625 29.984375 
L 43.40625 29.984375 
L 43.40625 38.09375 
L 69.28125 38.09375 
L 69.28125 6.78125 
Q 63.578125 2.734375 56.6875 0.65625 
Q 49.8125 -1.421875 42 -1.421875 
Q 24.90625 -1.421875 15.25 8.5625 
Q 5.609375 18.5625 5.609375 36.375 
Q 5.609375 54.25 15.25 64.234375 
Q 24.90625 74.21875 42 74.21875 
Q 49.125 74.21875 55.546875 72.453125 
Q 61.96875 70.703125 67.390625 67.28125 
L 67.390625 56.78125 
Q 61.921875 61.421875 55.765625 63.765625 
Q 49.609375 66.109375 42.828125 66.109375 
Q 29.4375 66.109375 22.71875 58.640625 
Q 16.015625 51.171875 16.015625 36.375 
Q 16.015625 21.625 22.71875 14.15625 
Q 29.4375 6.6875 42.828125 6.6875 
Q 48.046875 6.6875 52.140625 7.59375 
Q 56.25 8.5 59.515625 10.40625 
" id="BitstreamVeraSans-Roman-47"/>
      <path d="M 9.421875 54.6875 
L 18.40625 54.6875 
L 18.40625 0 
L 9.421875 0 
z
M 9.421875 75.984375 
L 18.40625 75.984375 
L 18.40625 64.59375 
L 9.421875 64.59375 
z
" id="BitstreamVeraSans-Roman-69"/>
      <path d="M 56.203125 29.59375 
L 56.203125 25.203125 
L 14.890625 25.203125 
Q 15.484375 15.921875 20.484375 11.0625 
Q 25.484375 6.203125 34.421875 6.203125 
Q 39.59375 6.203125 44.453125 7.46875 
Q 49.3125 8.734375 54.109375 11.28125 
L 54.109375 2.78125 
Q 49.265625 0.734375 44.1875 -0.34375 
Q 39.109375 -1.421875 33.890625 -1.421875 
Q 20.796875 -1.421875 13.15625 6.1875 
Q 5.515625 13.8125 5.515625 26.8125 
Q 5.515625 40.234375 12.765625 48.109375 
Q 20.015625 56 32.328125 56 
Q 43.359375 56 49.78125 48.890625 
Q 56.203125 41.796875 56.203125 29.59375 
M 47.21875 32.234375 
Q 47.125 39.59375 43.09375 43.984375 
Q 39.0625 48.390625 32.421875 48.390625 
Q 24.90625 48.390625 20.390625 44.140625 
Q 15.875 39.890625 15.1875 32.171875 
z
" id="BitstreamVeraSans-Roman-65"/>
      <path d="M 18.3125 70.21875 
L 18.3125 54.6875 
L 36.8125 54.6875 
L 36.8125 47.703125 
L 18.3125 47.703125 
L 18.3125 18.015625 
Q 18.3125 11.328125 20.140625 9.421875 
Q 21.96875 7.515625 27.59375 7.515625 
L 36.8125 7.515625 
L 36.8125 0 
L 27.59375 0 
Q 17.1875 0 13.234375 3.875 
Q 9.28125 7.765625 9.28125 18.015625 
L 9.28125 47.703125 
L 2.6875 47.703125 
L 2.6875 54.6875 
L 9.28125 54.6875 
L 9.28125 70.21875 
z
" id="BitstreamVeraSans-Roman-74"/>
      <path d="M 34.28125 27.484375 
Q 23.390625 27.484375 19.1875 25 
Q 14.984375 22.515625 14.984375 16.5 
Q 14.984375 11.71875 18.140625 8.90625 
Q 21.296875 6.109375 26.703125 6.109375 
Q 34.1875 6.109375 38.703125 11.40625 
Q 43.21875 16.703125 43.21875 25.484375 
L 43.21875 27.484375 
z
M 52.203125 31.203125 
L 52.203125 0 
L 43.21875 0 
L 43.21875 8.296875 
Q 40.140625 3.328125 35.546875 0.953125 
Q 30.953125 -1.421875 24.3125 -1.421875 
Q 15.921875 -1.421875 10.953125 3.296875 
Q 6 8.015625 6 15.921875 
Q 6 25.140625 12.171875 29.828125 
Q 18.359375 34.515625 30.609375 34.515625 
L 43.21875 34.515625 
L 43.21875 35.40625 
Q 43.21875 41.609375 39.140625 45 
Q 35.0625 48.390625 27.6875 48.390625 
Q 23 48.390625 18.546875 47.265625 
Q 14.109375 46.140625 10.015625 43.890625 
L 10.015625 52.203125 
Q 14.9375 54.109375 19.578125 55.046875 
Q 24.21875 56 28.609375 56 
Q 40.484375 56 46.34375 49.84375 
Q 52.203125 43.703125 52.203125 31.203125 
" id="BitstreamVeraSans-Roman-61"/>
      <path d="M 44.28125 53.078125 
L 44.28125 44.578125 
Q 40.484375 46.53125 36.375 47.5 
Q 32.28125 48.484375 27.875 48.484375 
Q 21.1875 48.484375 17.84375 46.4375 
Q 14.5 44.390625 14.5 40.28125 
Q 14.5 37.15625 16.890625 35.375 
Q 19.28125 33.59375 26.515625 31.984375 
L 29.59375 31.296875 
Q 39.15625 29.25 43.1875 25.515625 
Q 47.21875 21.78125 47.21875 15.09375 
Q 47.21875 7.46875 41.1875 3.015625 
Q 35.15625 -1.421875 24.609375 -1.421875 
Q 20.21875 -1.421875 15.453125 -0.5625 
Q 10.6875 0.296875 5.421875 2 
L 5.421875 11.28125 
Q 10.40625 8.6875 15.234375 7.390625 
Q 20.0625 6.109375 24.8125 6.109375 
Q 31.15625 6.109375 34.5625 8.28125 
Q 37.984375 10.453125 37.984375 14.40625 
Q 37.984375 18.0625 35.515625 20.015625 
Q 33.0625 21.96875 24.703125 23.78125 
L 21.578125 24.515625 
Q 13.234375 26.265625 9.515625 29.90625 
Q 5.8125 33.546875 5.8125 39.890625 
Q 5.8125 47.609375 11.28125 51.796875 
Q 16.75 56 26.8125 56 
Q 31.78125 56 36.171875 55.265625 
Q 40.578125 54.546875 44.28125 53.078125 
" id="BitstreamVeraSans-Roman-73"/>
     </defs>
     <g transform="translate(258.6028125 418.531875)scale(0.12 -0.12)">
      <use xlink:href="#BitstreamVeraSans-Roman-47"/>
      <use x="77.490234375" xlink:href="#BitstreamVeraSans-Roman-65"/>
      <use x="139.013671875" xlink:href="#BitstreamVeraSans-Roman-6e"/>
      <use x="202.392578125" xlink:href="#BitstreamVeraSans-Roman-65"/>
      <use x="263.916015625" xlink:href="#BitstreamVeraSans-Roman-72"/>
      <use x="305.029296875" xlink:href="#BitstreamVeraSans-Roman-61"/>
      <use x="366.30859375" xlink:href="#BitstreamVeraSans-Roman-74"/>
      <use x="405.517578125" xlink:href="#BitstreamVeraSans-Roman-69"/>
      <use x="433.30078125" xlink:href="#BitstreamVeraSans-Roman-6f"/>
      <use x="494.482421875" xlink:href="#BitstreamVeraSans-Roman-6e"/>
      <use x="557.861328125" xlink:href="#BitstreamVeraSans-Roman-73"/>
     </g>
    </g>
   </g>
   <g id="matplotlib.axis_2">
    <g id="ytick_1">
     <g id="line2d_13">
      <defs>
       <path d="M 0 0 
L 4 0 
" id="me600344e96" style="stroke:#000000;stroke-width:0.5;"/>
      </defs>
      <g>
       <use style="stroke:#000000;stroke-width:0.5;" x="72.0" xlink:href="#me600344e96" y="388.8"/>
      </g>
     </g>
     <g id="line2d_14">
      <defs>
       <path d="M 0 0 
L -4 0 
" id="m06c751a355" style="stroke:#000000;stroke-width:0.5;"/>
      </defs>
      <g>
       <use style="stroke:#000000;stroke-width:0.5;" x="518.4" xlink:href="#m06c751a355" y="388.8"/>
      </g>
     </g>
     <g id="text_8">
      <!-- 0 -->
      <g transform="translate(60.365 392.11125)scale(0.12 -0.12)">
       <use xlink:href="#BitstreamVeraSans-Roman-30"/>
      </g>
     </g>
    </g>
    <g id="ytick_2">
     <g id="line2d_15">
      <g>
       <use style="stroke:#000000;stroke-width:0.5;" x="72.0" xlink:href="#me600344e96" y="345.6"/>
      </g>
     </g>
     <g id="line2d_16">
      <g>
       <use style="stroke:#000000;stroke-width:0.5;" x="518.4" xlink:href="#m06c751a355" y="345.6"/>
      </g>
     </g>
     <g id="text_9">
      <!-- 20 -->
      <g transform="translate(52.73 348.91125)scale(0.12 -0.12)">
       <use xlink:href="#BitstreamVeraSans-Roman-32"/>
       <use x="63.623046875" xlink:href="#BitstreamVeraSans-Roman-30"/>
      </g>
     </g>
    </g>
    <g id="ytick_3">
     <g id="line2d_17">
      <g>
       <use style="stroke:#000000;stroke-width:0.5;" x="72.0" xlink:href="#me600344e96" y="302.4"/>
      </g>
     </g>
     <g id="line2d_18">
      <g>
       <use style="stroke:#000000;stroke-width:0.5;" x="518.4" xlink:href="#m06c751a355" y="302.4"/>
      </g>
     </g>
     <g id="text_10">
      <!-- 40 -->
      <g transform="translate(52.73 305.71125)scale(0.12 -0.12)">
       <use xlink:href="#BitstreamVeraSans-Roman-34"/>
       <use x="63.623046875" xlink:href="#BitstreamVeraSans-Roman-30"/>
      </g>
     </g>
    </g>
    <g id="ytick_4">
     <g id="line2d_19">
      <g>
       <use style="stroke:#000000;stroke-width:0.5;" x="72.0" xlink:href="#me600344e96" y="259.2"/>
      </g>
     </g>
     <g id="line2d_20">
      <g>
       <use style="stroke:#000000;stroke-width:0.5;" x="518.4" xlink:href="#m06c751a355" y="259.2"/>
      </g>
     </g>
     <g id="text_11">
      <!-- 60 -->
      <defs>
       <path d="M 33.015625 40.375 
Q 26.375 40.375 22.484375 35.828125 
Q 18.609375 31.296875 18.609375 23.390625 
Q 18.609375 15.53125 22.484375 10.953125 
Q 26.375 6.390625 33.015625 6.390625 
Q 39.65625 6.390625 43.53125 10.953125 
Q 47.40625 15.53125 47.40625 23.390625 
Q 47.40625 31.296875 43.53125 35.828125 
Q 39.65625 40.375 33.015625 40.375 
M 52.59375 71.296875 
L 52.59375 62.3125 
Q 48.875 64.0625 45.09375 64.984375 
Q 41.3125 65.921875 37.59375 65.921875 
Q 27.828125 65.921875 22.671875 59.328125 
Q 17.53125 52.734375 16.796875 39.40625 
Q 19.671875 43.65625 24.015625 45.921875 
Q 28.375 48.1875 33.59375 48.1875 
Q 44.578125 48.1875 50.953125 41.515625 
Q 57.328125 34.859375 57.328125 23.390625 
Q 57.328125 12.15625 50.6875 5.359375 
Q 44.046875 -1.421875 33.015625 -1.421875 
Q 20.359375 -1.421875 13.671875 8.265625 
Q 6.984375 17.96875 6.984375 36.375 
Q 6.984375 53.65625 15.1875 63.9375 
Q 23.390625 74.21875 37.203125 74.21875 
Q 40.921875 74.21875 44.703125 73.484375 
Q 48.484375 72.75 52.59375 71.296875 
" id="BitstreamVeraSans-Roman-36"/>
      </defs>
      <g transform="translate(52.73 262.51125)scale(0.12 -0.12)">
       <use xlink:href="#BitstreamVeraSans-Roman-36"/>
       <use x="63.623046875" xlink:href="#BitstreamVeraSans-Roman-30"/>
      </g>
     </g>
    </g>
    <g id="ytick_5">
     <g id="line2d_21">
      <g>
       <use style="stroke:#000000;stroke-width:0.5;" x="72.0" xlink:href="#me600344e96" y="216.0"/>
      </g>
     </g>
     <g id="line2d_22">
      <g>
       <use style="stroke:#000000;stroke-width:0.5;" x="518.4" xlink:href="#m06c751a355" y="216.0"/>
      </g>
     </g>
     <g id="text_12">
      <!-- 80 -->
      <defs>
       <path d="M 31.78125 34.625 
Q 24.75 34.625 20.71875 30.859375 
Q 16.703125 27.09375 16.703125 20.515625 
Q 16.703125 13.921875 20.71875 10.15625 
Q 24.75 6.390625 31.78125 6.390625 
Q 38.8125 6.390625 42.859375 10.171875 
Q 46.921875 13.96875 46.921875 20.515625 
Q 46.921875 27.09375 42.890625 30.859375 
Q 38.875 34.625 31.78125 34.625 
M 21.921875 38.8125 
Q 15.578125 40.375 12.03125 44.71875 
Q 8.5 49.078125 8.5 55.328125 
Q 8.5 64.0625 14.71875 69.140625 
Q 20.953125 74.21875 31.78125 74.21875 
Q 42.671875 74.21875 48.875 69.140625 
Q 55.078125 64.0625 55.078125 55.328125 
Q 55.078125 49.078125 51.53125 44.71875 
Q 48 40.375 41.703125 38.8125 
Q 48.828125 37.15625 52.796875 32.3125 
Q 56.78125 27.484375 56.78125 20.515625 
Q 56.78125 9.90625 50.3125 4.234375 
Q 43.84375 -1.421875 31.78125 -1.421875 
Q 19.734375 -1.421875 13.25 4.234375 
Q 6.78125 9.90625 6.78125 20.515625 
Q 6.78125 27.484375 10.78125 32.3125 
Q 14.796875 37.15625 21.921875 38.8125 
M 18.3125 54.390625 
Q 18.3125 48.734375 21.84375 45.5625 
Q 25.390625 42.390625 31.78125 42.390625 
Q 38.140625 42.390625 41.71875 45.5625 
Q 45.3125 48.734375 45.3125 54.390625 
Q 45.3125 60.0625 41.71875 63.234375 
Q 38.140625 66.40625 31.78125 66.40625 
Q 25.390625 66.40625 21.84375 63.234375 
Q 18.3125 60.0625 18.3125 54.390625 
" id="BitstreamVeraSans-Roman-38"/>
      </defs>
      <g transform="translate(52.73 219.31125)scale(0.12 -0.12)">
       <use xlink:href="#BitstreamVeraSans-Roman-38"/>
       <use x="63.623046875" xlink:href="#BitstreamVeraSans-Roman-30"/>
      </g>
     </g>
    </g>
    <g id="ytick_6">
     <g id="line2d_23">
      <g>
       <use style="stroke:#000000;stroke-width:0.5;" x="72.0" xlink:href="#me600344e96" y="172.8"/>
      </g>
     </g>
     <g id="line2d_24">
      <g>
       <use style="stroke:#000000;stroke-width:0.5;" x="518.4" xlink:href="#m06c751a355" y="172.8"/>
      </g>
     </g>
     <g id="text_13">
      <!-- 100 -->
      <g transform="translate(45.095 176.11125)scale(0.12 -0.12)">
       <use xlink:href="#BitstreamVeraSans-Roman-31"/>
       <use x="63.623046875" xlink:href="#BitstreamVeraSans-Roman-30"/>
       <use x="127.24609375" xlink:href="#BitstreamVeraSans-Roman-30"/>
      </g>
     </g>
    </g>
    <g id="ytick_7">
     <g id="line2d_25">
      <g>
       <use style="stroke:#000000;stroke-width:0.5;" x="72.0" xlink:href="#me600344e96" y="129.6"/>
      </g>
     </g>
     <g id="line2d_26">
      <g>
       <use style="stroke:#000000;stroke-width:0.5;" x="518.4" xlink:href="#m06c751a355" y="129.6"/>
      </g>
     </g>
     <g id="text_14">
      <!-- 120 -->
      <g transform="translate(45.095 132.91125)scale(0.12 -0.12)">
       <use xlink:href="#BitstreamVeraSans-Roman-31"/>
       <use x="63.623046875" xlink:href="#BitstreamVeraSans-Roman-32"/>
       <use x="127.24609375" xlink:href="#BitstreamVeraSans-Roman-30"/>
      </g>
     </g>
    </g>
    <g id="ytick_8">
     <g id="line2d_27">
      <g>
       <use style="stroke:#000000;stroke-width:0.5;" x="72.0" xlink:href="#me600344e96" y="86.4"/>
      </g>
     </g>
     <g id="line2d_28">
      <g>
       <use style="stroke:#000000;stroke-width:0.5;" x="518.4" xlink:href="#m06c751a355" y="86.4"/>
      </g>
     </g>
     <g id="text_15">
      <!-- 140 -->
      <g transform="translate(45.095 89.71125)scale(0.12 -0.12)">
       <use xlink:href="#BitstreamVeraSans-Roman-31"/>
       <use x="63.623046875" xlink:href="#BitstreamVeraSans-Roman-34"/>
       <use x="127.24609375" xlink:href="#BitstreamVeraSans-Roman-30"/>
      </g>
     </g>
    </g>
    <g id="ytick_9">
     <g id="line2d_29">
      <g>
       <use style="stroke:#000000;stroke-width:0.5;" x="72.0" xlink:href="#me600344e96" y="43.2"/>
      </g>
     </g>
     <g id="line2d_30">
      <g>
       <use style="stroke:#000000;stroke-width:0.5;" x="518.4" xlink:href="#m06c751a355" y="43.2"/>
      </g>
     </g>
     <g id="text_16">
      <!-- 160 -->
      <g transform="translate(45.095 46.51125)scale(0.12 -0.12)">
       <use xlink:href="#BitstreamVeraSans-Roman-31"/>
       <use x="63.623046875" xlink:href="#BitstreamVeraSans-Roman-36"/>
       <use x="127.24609375" xlink:href="#BitstreamVeraSans-Roman-30"/>
      </g>
     </g>
    </g>
    <g id="text_17">
     <!-- Size per Species -->
     <defs>
      <path id="BitstreamVeraSans-Roman-20"/>
      <path d="M 53.515625 70.515625 
L 53.515625 60.890625 
Q 47.90625 63.578125 42.921875 64.890625 
Q 37.9375 66.21875 33.296875 66.21875 
Q 25.25 66.21875 20.875 63.09375 
Q 16.5 59.96875 16.5 54.203125 
Q 16.5 49.359375 19.40625 46.890625 
Q 22.3125 44.4375 30.421875 42.921875 
L 36.375 41.703125 
Q 47.40625 39.59375 52.65625 34.296875 
Q 57.90625 29 57.90625 20.125 
Q 57.90625 9.515625 50.796875 4.046875 
Q 43.703125 -1.421875 29.984375 -1.421875 
Q 24.8125 -1.421875 18.96875 -0.25 
Q 13.140625 0.921875 6.890625 3.21875 
L 6.890625 13.375 
Q 12.890625 10.015625 18.65625 8.296875 
Q 24.421875 6.59375 29.984375 6.59375 
Q 38.421875 6.59375 43.015625 9.90625 
Q 47.609375 13.234375 47.609375 19.390625 
Q 47.609375 24.75 44.3125 27.78125 
Q 41.015625 30.8125 33.5 32.328125 
L 27.484375 33.5 
Q 16.453125 35.6875 11.515625 40.375 
Q 6.59375 45.0625 6.59375 53.421875 
Q 6.59375 63.09375 13.40625 68.65625 
Q 20.21875 74.21875 32.171875 74.21875 
Q 37.3125 74.21875 42.625 73.28125 
Q 47.953125 72.359375 53.515625 70.515625 
" id="BitstreamVeraSans-Roman-53"/>
      <path d="M 48.78125 52.59375 
L 48.78125 44.1875 
Q 44.96875 46.296875 41.140625 47.34375 
Q 37.3125 48.390625 33.40625 48.390625 
Q 24.65625 48.390625 19.8125 42.84375 
Q 14.984375 37.3125 14.984375 27.296875 
Q 14.984375 17.28125 19.8125 11.734375 
Q 24.65625 6.203125 33.40625 6.203125 
Q 37.3125 6.203125 41.140625 7.25 
Q 44.96875 8.296875 48.78125 10.40625 
L 48.78125 2.09375 
Q 45.015625 0.34375 40.984375 -0.53125 
Q 36.96875 -1.421875 32.421875 -1.421875 
Q 20.0625 -1.421875 12.78125 6.34375 
Q 5.515625 14.109375 5.515625 27.296875 
Q 5.515625 40.671875 12.859375 48.328125 
Q 20.21875 56 33.015625 56 
Q 37.15625 56 41.109375 55.140625 
Q 45.0625 54.296875 48.78125 52.59375 
" id="BitstreamVeraSans-Roman-63"/>
      <path d="M 18.109375 8.203125 
L 18.109375 -20.796875 
L 9.078125 -20.796875 
L 9.078125 54.6875 
L 18.109375 54.6875 
L 18.109375 46.390625 
Q 20.953125 51.265625 25.265625 53.625 
Q 29.59375 56 35.59375 56 
Q 45.5625 56 51.78125 48.09375 
Q 58.015625 40.1875 58.015625 27.296875 
Q 58.015625 14.40625 51.78125 6.484375 
Q 45.5625 -1.421875 35.59375 -1.421875 
Q 29.59375 -1.421875 25.265625 0.953125 
Q 20.953125 3.328125 18.109375 8.203125 
M 48.6875 27.296875 
Q 48.6875 37.203125 44.609375 42.84375 
Q 40.53125 48.484375 33.40625 48.484375 
Q 26.265625 48.484375 22.1875 42.84375 
Q 18.109375 37.203125 18.109375 27.296875 
Q 18.109375 17.390625 22.1875 11.75 
Q 26.265625 6.109375 33.40625 6.109375 
Q 40.53125 6.109375 44.609375 11.75 
Q 48.6875 17.390625 48.6875 27.296875 
" id="BitstreamVeraSans-Roman-70"/>
      <path d="M 5.515625 54.6875 
L 48.1875 54.6875 
L 48.1875 46.484375 
L 14.40625 7.171875 
L 48.1875 7.171875 
L 48.1875 0 
L 4.296875 0 
L 4.296875 8.203125 
L 38.09375 47.515625 
L 5.515625 47.515625 
z
" id="BitstreamVeraSans-Roman-7a"/>
     </defs>
     <g transform="translate(37.599375 265.1915625)rotate(-90.0)scale(0.12 -0.12)">
      <use xlink:href="#BitstreamVeraSans-Roman-53"/>
      <use x="63.4765625" xlink:href="#BitstreamVeraSans-Roman-69"/>
      <use x="91.259765625" xlink:href="#BitstreamVeraSans-Roman-7a"/>
      <use x="143.75" xlink:href="#BitstreamVeraSans-Roman-65"/>
      <use x="205.2734375" xlink:href="#BitstreamVeraSans-Roman-20"/>
      <use x="237.060546875" xlink:href="#BitstreamVeraSans-Roman-70"/>
      <use x="300.537109375" xlink:href="#BitstreamVeraSans-Roman-65"/>
      <use x="362.060546875" xlink:href="#BitstreamVeraSans-Roman-72"/>
      <use x="403.173828125" xlink:href="#BitstreamVeraSans-Roman-20"/>
      <use x="434.9609375" xlink:href="#BitstreamVeraSans-Roman-53"/>
      <use x="498.4375" xlink:href="#BitstreamVeraSans-Roman-70"/>
      <use x="561.9140625" xlink:href="#BitstreamVeraSans-Roman-65"/>
      <use x="623.4375" xlink:href="#BitstreamVeraSans-Roman-63"/>
      <use x="678.41796875" xlink:href="#BitstreamVeraSans-Roman-69"/>
      <use x="706.201171875" xlink:href="#BitstreamVeraSans-Roman-65"/>
      <use x="767.724609375" xlink:href="#BitstreamVeraSans-Roman-73"/>
     </g>
    </g>
   </g>
   <g id="text_18">
    <!-- Speciation -->
    <g transform="translate(257.46525 38.2)scale(0.144 -0.144)">
     <use xlink:href="#BitstreamVeraSans-Roman-53"/>
     <use x="63.4765625" xlink:href="#BitstreamVeraSans-Roman-70"/>
     <use x="126.953125" xlink:href="#BitstreamVeraSans-Roman-65"/>
     <use x="188.4765625" xlink:href="#BitstreamVeraSans-Roman-63"/>
     <use x="243.45703125" xlink:href="#BitstreamVeraSans-Roman-69"/>
     <use x="271.240234375" xlink:href="#BitstreamVeraSans-Roman-61"/>
     <use x="332.51953125" xlink:href="#BitstreamVeraSans-Roman-74"/>
     <use x="371.728515625" xlink:href="#BitstreamVeraSans-Roman-69"/>
     <use x="399.51171875" xlink:href="#BitstreamVeraSans-Roman-6f"/>
     <use x="460.693359375" xlink:href="#BitstreamVeraSans-Roman-6e"/>
    </g>
   </g>
  </g>
 </g>
 <defs>
  <clipPath id="p8f5aecd8b8">
   <rect height="345.6" width="446.4" x="72.0" y="43.2"/>
  </clipPath>
 </defs>
</svg>
